<?xml version="1.0" encoding="utf-8"?>
<!-- Generator: Adobe Illustrator 17.1.0, SVG Export Plug-In . SVG Version: 6.00 Build 0)  -->
<!DOCTYPE svg PUBLIC "-//W3C//DTD SVG 1.1//EN" "http://www.w3.org/Graphics/SVG/1.1/DTD/svg11.dtd">
<svg version="1.1" xmlns="http://www.w3.org/2000/svg" xmlns:xlink="http://www.w3.org/1999/xlink" x="0px" y="0px"
	 viewBox="0 0 1024 768" enable-background="new 0 0 1024 768" xml:space="preserve">
<g id="Слой_2">
	<g opacity="0.2">
		<g>
			<path fill="none" stroke="#000000" stroke-width="1.15" stroke-miterlimit="10" d="M1303.2,383.997
				c0-437.323-353.877-791.2-791.2-791.2s-791.2,353.877-791.2,791.2s353.877,791.2,791.2,791.2S1303.2,821.321,1303.2,383.997z"/>
			<path fill="none" stroke="#000000" stroke-width="1.15" stroke-miterlimit="10" d="M512,1016.957
				c-349.859,0-632.96-283.101-632.96-632.96S162.141-248.963,512-248.963s632.96,283.101,632.96,632.96
				S861.859,1016.957,512,1016.957z"/>
			<path fill="none" stroke="#000000" stroke-width="1.15" stroke-miterlimit="10" d="M986.72,383.997
				c0-262.394-212.326-474.72-474.72-474.72S37.28,121.603,37.28,383.997S249.606,858.717,512,858.717
				S986.72,646.391,986.72,383.997z"/>
			<path fill="none" stroke="#000000" stroke-width="1.15" stroke-miterlimit="10" d="M512,700.477
				c-174.929,0-316.48-141.551-316.48-316.48S337.071,67.517,512,67.517s316.48,141.551,316.48,316.48S686.929,700.477,512,700.477z
				"/>
			<path fill="none" stroke="#000000" stroke-width="1.15" stroke-miterlimit="10" d="M670.24,383.997
				c0-87.465-70.775-158.24-158.24-158.24s-158.24,70.775-158.24,158.24s70.775,158.24,158.24,158.24S670.24,471.462,670.24,383.997
				z"/>
		</g>
		<g>
			<line fill="none" stroke="#000000" stroke-width="1.15" stroke-miterlimit="10" x1="512" y1="383.997" x2="512" y2="1175.197"/>
			
				<line fill="none" stroke="#000000" stroke-width="1.15" stroke-miterlimit="10" x1="512" y1="383.997" x2="907.6" y2="1069.197"/>
			
				<line fill="none" stroke="#000000" stroke-width="1.15" stroke-miterlimit="10" x1="512" y1="383.997" x2="1197.199" y2="779.597"/>
			
				<line fill="none" stroke="#000000" stroke-width="1.15" stroke-miterlimit="10" x1="512" y1="383.997" x2="1303.2" y2="383.997"/>
			
				<line fill="none" stroke="#000000" stroke-width="1.15" stroke-miterlimit="10" x1="512" y1="383.997" x2="1197.199" y2="-11.603"/>
			
				<line fill="none" stroke="#000000" stroke-width="1.15" stroke-miterlimit="10" x1="512" y1="383.997" x2="907.6" y2="-301.202"/>
			<line fill="none" stroke="#000000" stroke-width="1.15" stroke-miterlimit="10" x1="512" y1="383.997" x2="512" y2="-407.203"/>
			
				<line fill="none" stroke="#000000" stroke-width="1.15" stroke-miterlimit="10" x1="512" y1="383.997" x2="116.4" y2="-301.202"/>
			
				<line fill="none" stroke="#000000" stroke-width="1.15" stroke-miterlimit="10" x1="512" y1="383.997" x2="-173.199" y2="-11.603"/>
			
				<line fill="none" stroke="#000000" stroke-width="1.15" stroke-miterlimit="10" x1="512" y1="383.997" x2="-279.2" y2="383.997"/>
			
				<line fill="none" stroke="#000000" stroke-width="1.15" stroke-miterlimit="10" x1="512" y1="383.997" x2="-173.199" y2="779.597"/>
			
				<line fill="none" stroke="#000000" stroke-width="1.15" stroke-miterlimit="10" x1="512" y1="383.997" x2="116.4" y2="1069.197"/>
		</g>
	</g>
</g>
<g id="Слой_4">
	<g>
		<g>
			<path d="M428.751,274.016c15.549-16.484,37.371-25.492,59.982-25.154c3.912,0.059,5.021-5.079,0.52-5.146
				c-24.962-0.373-49.035,10.012-66.133,28.138C420.207,274.941,426.58,276.317,428.751,274.016L428.751,274.016z"/>
		</g>
	</g>
	<g>
		<g>
			<path d="M404.221,272.349c5.842-6.924,11.891-13.641,19.032-19.26c7.062-5.557,15.287-9.421,23.461-13.026
				c9.033-3.984,17.532-7.087,27.377-8.345c9.675-1.236,19.305-2.298,29.007-0.725c3.072,0.498,6.864-3.801,2.393-4.526
				c-20.226-3.28-41.522,1.359-60.038,9.329c-8.769,3.775-17.35,7.964-25.14,13.524c-8.255,5.892-15.097,13.618-21.6,21.324
				C396.029,273.824,402.428,274.474,404.221,272.349L404.221,272.349z"/>
		</g>
	</g>
	<g>
		<g>
			<path d="M376.075,366.309c-0.669-22.937,8.074-45.529,24.603-61.572c3.23-3.135-1.958-5.734-4.485-3.282
				c-17.611,17.092-27.609,40.669-26.89,65.288C369.41,370.39,376.168,369.48,376.075,366.309L376.075,366.309z"/>
		</g>
	</g>
	<g>
		<g>
			<path d="M357.703,381.918c-0.82-9.689-1.201-19.331,0.171-28.987c1.345-9.469,4.848-18.526,8.361-27.361
				c6.683-16.809,17.853-33.638,32.772-44.348c3.683-2.644-1.841-4.514-4.335-2.724c-15.068,10.817-27.217,27.757-34.077,44.792
				c-3.731,9.265-7.25,18.605-9.144,28.441c-2.022,10.502-1.307,21.39-0.412,31.972C351.275,386.501,357.959,384.94,357.703,381.918
				L357.703,381.918z"/>
		</g>
	</g>
	<g>
		<g>
			<path d="M403.324,466.451c-16.752-15.802-26.154-38.278-25.81-61.281c0.054-3.64-6.724-2.756-6.772,0.434
				c-0.367,24.572,9.623,47.987,27.482,64.834C400.515,472.6,406.211,469.175,403.324,466.451L403.324,466.451z"/>
		</g>
	</g>
	<g>
		<g>
			<path d="M401.93,491.083c-6.972-5.883-13.644-12.021-19.299-19.207c-5.968-7.585-10.05-16.474-13.877-25.269
				c-7.611-17.495-11.923-37.698-8.822-56.823c0.512-3.156-6.276-2.168-6.726,0.606c-1.649,10.168-0.522,20.308,0.757,30.449
				c1.324,10.494,4.622,19.499,8.82,29.148c3.775,8.676,8.026,17.136,13.72,24.727c5.705,7.605,13.008,13.929,20.239,20.03
				C398.814,496.492,404.762,493.473,401.93,491.083L401.93,491.083z"/>
		</g>
	</g>
	<g>
		<g>
			<path d="M491.755,518.43c-22.655,0.661-44.865-8.415-60.649-24.679c-2.217-2.285-8.506,0.512-6.082,3.01
				c17.353,17.88,41.307,27.542,66.211,26.815C495.122,523.463,496.28,518.298,491.755,518.43L491.755,518.43z"/>
		</g>
	</g>
	<g>
		<g>
			<path d="M508.124,537.06c-9.604,0.812-19.15,1.218-28.724-0.142c-9.387-1.333-18.433-4.933-27.19-8.415
				c-16.858-6.703-33.596-18.136-44.316-33.07c-1.63-2.27-8.022,0.199-6.128,2.838c10.811,15.06,27.834,26.938,44.824,33.78
				c9.339,3.761,18.702,7.182,28.612,9.09c10.57,2.036,21.584,1.342,32.235,0.441C511.042,541.279,512.693,536.674,508.124,537.06
				L508.124,537.06z"/>
		</g>
	</g>
	<g>
		<g>
			<path d="M591.559,494.295c-15.55,16.484-37.371,25.492-59.982,25.154c-3.912-0.059-5.021,5.079-0.52,5.146
				c24.962,0.373,49.035-10.012,66.133-28.138C600.102,493.37,593.73,491.993,591.559,494.295L591.559,494.295z"/>
		</g>
	</g>
	<g>
		<g>
			<path d="M616.089,495.961c-5.842,6.924-11.891,13.641-19.032,19.26c-7.062,5.557-15.287,9.421-23.461,13.026
				c-9.033,3.984-17.532,7.087-27.377,8.345c-9.675,1.236-19.305,2.298-29.007,0.725c-3.072-0.498-6.864,3.802-2.393,4.526
				c20.226,3.28,41.522-1.359,60.038-9.329c8.769-3.775,17.35-7.964,25.14-13.524c8.255-5.892,15.097-13.618,21.6-21.324
				C624.281,494.486,617.881,493.837,616.089,495.961L616.089,495.961z"/>
		</g>
	</g>
	<g>
		<g>
			<path d="M645.614,404.726c0.669,22.937-8.074,45.529-24.603,61.572c-3.23,3.135,1.958,5.734,4.485,3.282
				c17.611-17.092,27.609-40.669,26.89-65.288C652.279,400.645,645.521,401.555,645.614,404.726L645.614,404.726z"/>
		</g>
	</g>
	<g>
		<g>
			<path d="M663.986,389.116c0.82,9.689,1.201,19.331-0.171,28.987c-1.345,9.468-4.849,18.526-8.361,27.361
				c-6.683,16.809-17.853,33.638-32.772,44.348c-3.683,2.644,1.841,4.514,4.335,2.724c15.068-10.817,27.217-27.757,34.077-44.792
				c3.731-9.265,7.25-18.605,9.144-28.441c2.022-10.501,1.307-21.39,0.412-31.972C670.414,384.533,663.73,386.095,663.986,389.116
				L663.986,389.116z"/>
		</g>
	</g>
	<g>
		<g>
			<path d="M620.823,303.623c16.752,15.802,26.154,38.278,25.81,61.281c-0.054,3.64,6.724,2.756,6.772-0.434
				c0.367-24.572-9.623-47.987-27.482-64.834C623.631,297.474,617.936,300.9,620.823,303.623L620.823,303.623z"/>
		</g>
	</g>
	<g>
		<g>
			<path d="M622.217,278.991c6.972,5.883,13.644,12.021,19.299,19.207c5.968,7.585,10.05,16.474,13.877,25.269
				c7.611,17.495,11.923,37.698,8.822,56.823c-0.512,3.156,6.276,2.168,6.726-0.606c1.649-10.168,0.522-20.308-0.757-30.449
				c-1.324-10.494-4.622-19.499-8.82-29.148c-3.775-8.676-8.026-17.136-13.72-24.727c-5.705-7.605-13.008-13.929-20.239-20.03
				C625.333,273.582,619.385,276.602,622.217,278.991L622.217,278.991z"/>
		</g>
	</g>
	<g>
		<g>
			<path d="M532.245,249.577c22.655-0.661,44.865,8.415,60.649,24.679c2.217,2.285,8.506-0.512,6.082-3.01
				c-17.353-17.88-41.307-27.542-66.211-26.815C528.878,244.544,527.72,249.709,532.245,249.577L532.245,249.577z"/>
		</g>
	</g>
	<g>
		<g>
			<path d="M515.876,230.947c9.604-0.812,19.15-1.218,28.724,0.142c9.387,1.333,18.433,4.933,27.19,8.415
				c16.858,6.703,33.596,18.136,44.316,33.07c1.63,2.27,8.022-0.199,6.128-2.838c-10.811-15.06-27.834-26.938-44.824-33.78
				c-9.339-3.761-18.702-7.182-28.612-9.09c-10.57-2.036-21.584-1.342-32.234-0.441
				C512.958,226.729,511.307,231.333,515.876,230.947L515.876,230.947z"/>
		</g>
	</g>
	<circle cx="511.491" cy="383.703" r="17.655"/>
</g>
<g id="Слой_5">
	<g>
		<g>
			<path d="M565.703,234.362c6.465-2.622,11.186-9.498,14.971-15.074c5.057-7.45,8.447-15.944,10.603-24.651
				c4.202-16.974,2.066-34.774-4.448-50.857c-6.648-16.414-18.355-29.404-31.777-40.614c-13.892-11.602-29.116-21.73-40.228-36.267
				c-0.856-1.12-6.306,0.139-6.61,1.514c-0.673,3.048-5.092,6.671-7.145,8.821c-2.932,3.071-6.105,5.909-9.317,8.681
				c-6.481,5.594-13.373,10.702-20.076,16.023c-13.954,11.075-26.064,23.428-33.925,39.612
				c-7.687,15.824-10.138,33.876-6.924,51.147c1.541,8.279,4.657,16.211,8.783,23.527c3.514,6.232,9.332,15.434,16.259,18.219
				c1.791,0.72,6.734-2.027,6.298-2.202c-7.004-2.817-12.193-11.559-15.892-17.803c-4.292-7.244-7.081-15.31-8.783-23.527
				c-3.661-17.68-0.272-36.015,7.541-52.1c7.947-16.359,21.109-28.418,35.164-39.499c6.72-5.298,13.531-10.471,19.961-16.125
				c3.187-2.803,6.205-5.785,9.087-8.9c1.717-1.856,4.971-4.611,5.525-7.117c-2.203,0.505-4.407,1.009-6.61,1.514
				c9.883,12.929,22.955,22.576,35.588,32.619c13.623,10.831,25.677,22.695,33.701,38.334c7.671,14.951,10.71,32.032,8.663,48.688
				c-1.024,8.336-3.653,16.417-7.27,23.97c-1.824,3.809-4.081,7.393-6.526,10.829c-2.593,3.645-6.116,8.844-10.393,10.578
				C557.875,235.344,564.241,234.954,565.703,234.362L565.703,234.362z"/>
		</g>
	</g>
	<g>
		<g>
			<path d="M520.555,106.927c-7.401-2.139-15.061-2.444-22.578-0.708c-7.34,1.694-12.288,8.964-17.097,14.188
				c-4.689,5.094-5.743,11.571-4.528,18.263c1.415,7.797,9.349,11.896,16.216,13.996c12.722,3.89,32.746,3.867,42.417-7.029
				c12.993-14.64-2.947-28.476-13.182-38.479c-1.701-1.662-8,0.85-6.185,2.624c7.453,7.284,18.721,15.407,17.413,27.108
				c-1.591,14.237-20.677,15.409-31.463,13.417c-5.916-1.092-12.241-3.595-16.241-8.218c-3.759-4.344-3.215-11.661-1.595-16.706
				c0.947-2.948,3.878-5.327,5.916-7.515c1.994-2.141,3.955-4.313,6.052-6.355c4.895-4.765,15.041-2.583,20.784-0.924
				C518.633,111.21,524.334,108.019,520.555,106.927L520.555,106.927z"/>
		</g>
	</g>
	<g>
		<g>
			<path d="M480.901,161.553c-4.961-1.12-9.728-1.174-14.748-0.419c-3.117,0.469-8.028,1.825-9.723,4.811
				c-1.999,3.521-3.501,9.105-2.864,13.15c0.74,4.701,5.96,7.686,9.979,9.026c7.807,2.603,18.44-1.382,23.543-7.472
				c2.854-3.406,2.749-8.271,0.908-12.072c-0.821-1.696-2.353-3.027-3.818-4.133c-1.359-1.027-3.663-0.837-2.718-2.155
				c0.511-0.714-5.424-0.462-6.58,1.152c-0.262,0.366-0.524,0.732-0.787,1.098c-0.291,0.407,0.306,0.658,0.557,0.736
				c4.476,1.396,7.213,4.663,7.988,9.258c1.507,8.928-9.274,13.082-16.108,10.002c-5.504-2.481-7.252-7.592-5.705-13.078
				c0.519-1.84,0.893-3.702,1.527-5.506c1.563-4.446,9.967-2.478,13.085-1.774c1.497,0.338,3.32-0.191,4.663-0.837
				C480.635,163.083,482.411,161.893,480.901,161.553z"/>
		</g>
	</g>
	<g>
		<g>
			<path d="M556.993,163.661c-4.961-1.12-9.728-1.174-14.748-0.419c-3.117,0.469-8.028,1.825-9.723,4.811
				c-2,3.521-3.501,9.105-2.864,13.15c0.74,4.701,5.959,7.686,9.979,9.026c7.807,2.603,18.441-1.382,23.543-7.472
				c2.854-3.406,2.749-8.271,0.908-12.072c-0.821-1.696-2.353-3.027-3.818-4.133c-1.359-1.027-3.663-0.837-2.718-2.155
				c0.511-0.714-5.424-0.462-6.58,1.152c-0.262,0.366-0.524,0.732-0.786,1.098c-0.291,0.407,0.306,0.658,0.557,0.736
				c4.476,1.396,7.213,4.663,7.988,9.258c1.507,8.928-9.274,13.082-16.108,10.002c-5.504-2.481-7.252-7.592-5.705-13.078
				c0.519-1.84,0.893-3.702,1.527-5.506c1.563-4.446,9.967-2.478,13.084-1.774c1.497,0.338,3.32-0.191,4.663-0.837
				C556.726,165.191,558.503,164.002,556.993,163.661z"/>
		</g>
	</g>
	<g>
		<g>
			<path d="M442.751,237.667c-12.251-16.4-21.619-34.857-25.396-55.091c-3.832-20.524,0.518-40.771,10.934-58.679
				c10.674-18.351,27.249-32.553,44.182-44.926c14.757-10.782,33.127-19.861,40.965-37.357c-2.179,0.148-4.358,0.295-6.537,0.443
				c6.771,16.682,23.777,24.332,38.287,33.065c17.896,10.771,33.036,24.421,43.683,42.518
				c10.522,17.884,15.187,38.729,14.201,59.376c-0.522,10.933-2.91,21.715-6.664,31.976c-3.557,9.722-8.442,19.845-16.859,26.229
				c-3.607,2.735,1.732,5.364,4.484,3.277c16.088-12.201,22.751-35.763,25.196-54.897c2.618-20.491-0.941-41.834-9.826-60.452
				c-9.05-18.963-22.849-34.241-40.048-46.179c-15.377-10.673-38.21-18.03-45.787-36.699c-1.092-2.69-5.478-1.923-6.537,0.443
				c-3.983,8.891-11.1,15.181-18.806,20.851c-8.511,6.263-17.431,11.93-25.861,18.314c-16.723,12.664-31.793,27.565-42.112,45.975
				c-21.361,38.109-8.225,81.829,16.422,114.821C438.587,243.244,444.9,240.544,442.751,237.667L442.751,237.667z"/>
		</g>
	</g>
	<g>
		<g>
			<path d="M518.99,229.284c3.815,0,5.109-4.895,0.587-4.895C515.762,224.389,514.468,229.284,518.99,229.284L518.99,229.284z"/>
		</g>
	</g>
	<g>
		<g>
			<path d="M522.651,226.484c0.04-7.203,2.901-13.323,6.721-19.292c3.954-6.179,8.496-12.526,14.18-17.211
				c1.162-0.958,0.595-2.331-0.716-2.671c-1.668-0.433-3.431,0.207-4.713,1.263c-5.655,4.661-9.932,10.875-14.081,16.855
				c-4.509,6.498-8.043,13.731-8.088,21.773C515.938,230.263,522.637,228.957,522.651,226.484L522.651,226.484z"/>
		</g>
	</g>
	<g>
		<g>
			<path d="M515.559,225.239c-3.571-11.861-4.326-24.055-4.134-36.381c0.172-11.02-0.79-24.661,4.875-34.518
				c1.819-3.165-4.957-3.054-6.341-0.646c-5.72,9.954-4.902,22.749-5.226,33.85c-0.388,13.298,0.307,26.676,4.162,39.48
				C509.778,229.963,516.433,228.142,515.559,225.239L515.559,225.239z"/>
		</g>
	</g>
	<g>
		<g>
			<path d="M472.299,187.712c-0.954,18.897,12.931,32.267,26.943,42.723c1.766,1.318,7.817-1.314,6.216-2.509
				c-13.362-9.971-27.438-22.986-26.521-41.15C479.062,184.291,472.399,185.72,472.299,187.712L472.299,187.712z"/>
		</g>
	</g>
	<g>
		<g>
			<path d="M365.368,331.292c-2.905-7.163-11.985-12.546-18.345-16.284c-7.424-4.362-15.712-7.182-24.118-8.909
				c-16.79-3.448-34.824-0.933-50.609,5.461c-16.428,6.654-29.733,17.341-41.231,30.692c-12.487,14.5-22.891,30.814-38.27,42.569
				c-0.537,0.41-0.335,0.784,0.244,0.911c2.921,0.645,6.604,5.265,8.733,7.297c3.776,3.604,7.214,7.554,10.557,11.556
				c5.836,6.986,11.232,14.329,16.994,21.377c12.018,14.7,26.186,26.578,44.122,33.318c15.77,5.926,33.355,6.867,49.69,2.789
				c7.976-1.991,15.565-4.969,22.727-9.007c6.536-3.685,15.852-9.47,18.761-16.703c0.374-0.931-5.904-0.378-6.555,1.242
				c-2.359,5.866-9.448,10.47-14.573,13.815c-6.532,4.264-13.897,7.261-21.489,8.994c-14.608,3.334-29.92,1.306-43.818-3.916
				c-12.951-4.867-24.322-13.046-33.915-22.915c-9.631-9.908-17.463-21.423-26.305-32.007c-3.805-4.555-7.857-8.89-12.215-12.921
				c-1.591-1.471-4.374-4.747-6.516-5.22c1.111,0.246,5.335-3.974,6.905-5.414c9.57-8.779,17.291-19.412,25.34-29.537
				c8.905-11.201,18.483-21.605,30.674-29.282c12.944-8.151,27.883-12.347,43.164-12.026c10.278,0.216,20.454,2.893,29.778,7.122
				c4.328,1.963,8.393,4.46,12.259,7.211c4.118,2.93,9.406,6.791,11.344,11.572C359.294,334.535,365.8,332.357,365.368,331.292
				L365.368,331.292z"/>
		</g>
	</g>
	<g>
		<g>
			<path d="M233.426,377.888c-2.094,7.246-3.023,16.133,0.18,23.211c1.47,3.248,4.763,5.664,7.304,8.03
				c2.861,2.665,5.584,5.494,8.949,7.523c5.041,3.04,13.453,2.682,18.749,0.645c7.477-2.875,11.029-9.044,13.564-16.313
				c4.617-13.243,3.335-34.777-10.821-41.745c-15.224-7.493-28.236,7.941-37.556,17.478c-2.747,2.811,3.795,2.734,5.356,1.137
				c7.783-7.964,18.05-22.343,30.214-13.397c8.993,6.614,9.234,22.712,7.442,32.416c-1.094,5.928-3.567,13.244-8.771,16.745
				c-6.26,4.211-13.865-0.524-18.343-4.694c-4.34-4.042-9.366-7.587-10.763-13.639c-1.381-5.98-0.515-12.405,1.165-18.217
				C240.797,374.64,234.087,375.601,233.426,377.888L233.426,377.888z"/>
		</g>
	</g>
	<g>
		<g>
			<path d="M287.578,418.404c-1.167,5.166-1.413,10.452,0.196,15.561c1.36,4.321,5.798,4.764,9.53,5.81
				c8.395,2.352,16.653-1.052,20.307-9.159c3.731-8.277-1.518-19.529-10.183-21.771c-7.564-1.957-16.481,3.065-18.752,10.346
				c2.142-0.574,4.285-1.148,6.427-1.722c-0.366-0.262-0.732-0.524-1.098-0.787c-1.542-1.104-7.296,1.56-6.274,2.292
				c0.366,0.262,0.732,0.524,1.098,0.787c1.229,0.88,5.943-0.17,6.427-1.722c0.668-2.141,1.522-3.701,3.092-5.351
				c4.112-4.321,9.24,1.826,11.023,4.534c2.847,4.324,3.267,9.728,1.66,14.546c-2.275,6.822-9.19,6.391-14.522,3.363
				c-4.922-2.795-3.273-13.798-2.352-17.879C294.51,415.691,287.958,416.719,287.578,418.404z"/>
		</g>
	</g>
	<g>
		<g>
			<path d="M289.686,342.312c-1.167,5.166-1.413,10.452,0.196,15.561c1.36,4.321,5.798,4.764,9.53,5.81
				c8.395,2.352,16.653-1.053,20.307-9.159c3.731-8.277-1.518-19.529-10.183-21.771c-7.564-1.957-16.481,3.065-18.752,10.346
				c2.142-0.574,4.285-1.148,6.427-1.722c-0.366-0.262-0.732-0.524-1.098-0.787c-1.542-1.104-7.296,1.56-6.274,2.292
				c0.366,0.262,0.732,0.524,1.098,0.787c1.229,0.88,5.943-0.17,6.427-1.722c0.668-2.141,1.522-3.701,3.092-5.351
				c4.112-4.321,9.24,1.826,11.023,4.534c2.847,4.324,3.267,9.728,1.66,14.546c-2.275,6.822-9.19,6.391-14.522,3.363
				c-4.922-2.795-3.273-13.798-2.352-17.879C296.618,339.6,290.067,340.627,289.686,342.312z"/>
		</g>
	</g>
	<g>
		<g>
			<path d="M364.932,454.649c-16.105,12.031-34.243,21.198-54.108,24.906c-20.959,3.913-41.733-1.189-59.632-12.356
				c-17.842-11.131-31.648-27.488-43.842-44.356c-10.423-14.419-19.278-31.801-36.284-39.419c-0.129,1.479-0.258,2.959-0.387,4.438
				c15.771-6.401,23.709-22.165,31.817-36.065c10.807-18.526,24.519-34.65,43.155-45.613c17.494-10.292,37.794-15.067,58.029-14.101
				c10.903,0.521,21.636,2.904,31.868,6.647c9.774,3.576,19.86,8.526,26.274,16.984c1.937,2.554,8.249-0.151,6.082-3.009
				c-12.169-16.044-35.896-22.652-54.959-25.087c-21.088-2.695-42.554,1.08-61.799,9.925c-18.676,8.584-34.125,22.444-45.971,39.099
				c-11.111,15.622-18.452,39.29-37.518,47.028c-2.076,0.843-2.569,3.461-0.387,4.438c9.365,4.195,15.915,12.02,21.791,20.171
				c6.225,8.636,12.001,17.558,18.487,26.011c12.623,16.45,27.734,31.75,46.31,41.377c38.944,20.185,82.156,7.211,115.559-17.742
				C373.042,455.218,367.694,452.586,364.932,454.649L364.932,454.649z"/>
		</g>
	</g>
	<g>
		<g>
			<path d="M354.546,379.161c3.815,0,5.109-4.895,0.587-4.895C351.318,374.266,350.024,379.161,354.546,379.161L354.546,379.161z"/>
		</g>
	</g>
	<g>
		<g>
			<path d="M356.091,374.613c-7.489-0.042-13.778-3.449-19.855-7.515c-5.703-3.816-11.492-7.982-15.877-13.302
				c-1.628-1.975-8.022,0.464-6.158,2.726c4.971,6.031,11.738,10.643,18.189,14.96c6.369,4.262,13.468,7.25,21.21,7.294
				C356.349,378.791,360.604,374.638,356.091,374.613L356.091,374.613z"/>
		</g>
	</g>
	<g>
		<g>
			<path d="M353.554,381.604c-11.472,3.454-23.306,4.201-35.228,4.015c-10.659-0.166-24.188,0.864-33.721-4.615
				c-2.407-1.383-8.33,1.913-5.169,3.73c10.254,5.893,23.202,5.152,34.647,5.486c13.7,0.4,27.441-0.31,40.633-4.281
				C358.753,384.723,357.631,380.376,353.554,381.604L353.554,381.604z"/>
		</g>
	</g>
	<g>
		<g>
			<path d="M313.908,422.108c20.255,1.022,35.094-13.395,46.354-28.485c1.677-2.247-4.975-1.533-6.155,0.048
				c-9.13,12.236-20.787,25.824-37.519,24.98C314.275,418.535,309.417,421.882,313.908,422.108L313.908,422.108z"/>
		</g>
	</g>
	<g>
		<g>
			<path d="M458.297,533.633c-6.465,2.622-11.186,9.498-14.971,15.074c-5.057,7.45-8.447,15.944-10.603,24.651
				c-4.202,16.974-2.066,34.774,4.448,50.857c6.648,16.414,18.355,29.404,31.777,40.614c13.892,11.602,29.116,21.73,40.228,36.267
				c0.856,1.12,6.306-0.139,6.61-1.514c0.673-3.048,5.092-6.671,7.145-8.821c2.932-3.071,6.105-5.909,9.317-8.681
				c6.481-5.594,13.373-10.702,20.076-16.023c13.954-11.075,26.064-23.428,33.925-39.612c7.687-15.824,10.138-33.876,6.924-51.147
				c-1.541-8.279-4.657-16.211-8.783-23.527c-3.514-6.232-9.333-15.434-16.259-18.219c-1.791-0.72-6.734,2.027-6.298,2.202
				c7.004,2.817,12.193,11.559,15.892,17.803c4.292,7.244,7.081,15.31,8.783,23.527c3.661,17.68,0.272,36.015-7.541,52.1
				c-7.947,16.359-21.109,28.418-35.164,39.499c-6.72,5.298-13.531,10.471-19.961,16.125c-3.187,2.803-6.206,5.785-9.087,8.9
				c-1.717,1.857-4.971,4.611-5.525,7.117c2.203-0.505,4.407-1.009,6.61-1.514c-9.883-12.929-22.955-22.576-35.588-32.62
				c-13.623-10.831-25.677-22.695-33.701-38.334c-7.671-14.951-10.71-32.032-8.663-48.688c1.025-8.336,3.653-16.417,7.27-23.97
				c1.824-3.809,4.081-7.393,6.526-10.829c2.593-3.645,6.116-8.844,10.393-10.578C466.125,532.65,459.759,533.04,458.297,533.633
				L458.297,533.633z"/>
		</g>
	</g>
	<g>
		<g>
			<path d="M503.445,661.068c7.401,2.138,15.061,2.444,22.578,0.708c7.34-1.694,12.288-8.964,17.097-14.188
				c4.689-5.094,5.743-11.571,4.528-18.263c-1.415-7.797-9.349-11.896-16.216-13.996c-12.722-3.89-32.746-3.867-42.417,7.029
				c-12.993,14.64,2.947,28.476,13.182,38.479c1.701,1.662,8-0.85,6.185-2.624c-7.453-7.284-18.721-15.407-17.413-27.108
				c1.591-14.237,20.677-15.409,31.463-13.417c5.916,1.092,12.241,3.595,16.241,8.218c3.759,4.344,3.215,11.661,1.595,16.706
				c-0.947,2.948-3.878,5.327-5.916,7.516c-1.994,2.141-3.955,4.313-6.052,6.355c-4.895,4.765-15.041,2.583-20.784,0.924
				C505.367,656.784,499.666,659.976,503.445,661.068L503.445,661.068z"/>
		</g>
	</g>
	<g>
		<g>
			<path d="M543.099,606.442c4.961,1.12,9.728,1.174,14.748,0.419c3.117-0.469,8.028-1.825,9.723-4.811
				c2-3.521,3.501-9.105,2.864-13.15c-0.74-4.701-5.96-7.686-9.979-9.026c-7.807-2.603-18.441,1.383-23.543,7.472
				c-2.854,3.406-2.749,8.271-0.908,12.072c0.821,1.696,2.353,3.026,3.818,4.133c1.359,1.027,3.663,0.837,2.718,2.155
				c-0.511,0.714,5.424,0.462,6.58-1.152c0.262-0.366,0.524-0.732,0.786-1.098c0.291-0.407-0.306-0.658-0.557-0.736
				c-4.476-1.396-7.213-4.663-7.988-9.258c-1.507-8.928,9.274-13.082,16.109-10.002c5.504,2.481,7.252,7.592,5.705,13.078
				c-0.519,1.839-0.893,3.702-1.527,5.506c-1.563,4.446-9.967,2.478-13.085,1.774c-1.497-0.338-3.32,0.191-4.662,0.837
				C543.365,604.912,541.589,606.101,543.099,606.442z"/>
		</g>
	</g>
	<g>
		<g>
			<path d="M467.007,604.334c4.961,1.12,9.728,1.174,14.748,0.419c3.117-0.469,8.028-1.825,9.723-4.811
				c1.999-3.521,3.501-9.105,2.864-13.15c-0.74-4.701-5.96-7.686-9.979-9.026c-7.807-2.603-18.44,1.382-23.543,7.471
				c-2.854,3.406-2.749,8.271-0.908,12.072c0.821,1.696,2.353,3.027,3.818,4.133c1.359,1.027,3.663,0.837,2.718,2.155
				c-0.511,0.714,5.424,0.462,6.58-1.152c0.262-0.366,0.524-0.732,0.787-1.098c0.291-0.407-0.306-0.658-0.557-0.737
				c-4.476-1.396-7.213-4.663-7.988-9.258c-1.507-8.928,9.274-13.082,16.109-10.002c5.504,2.481,7.252,7.592,5.705,13.078
				c-0.519,1.839-0.893,3.702-1.527,5.506c-1.563,4.446-9.967,2.478-13.085,1.774c-1.497-0.338-3.32,0.191-4.663,0.837
				C467.274,602.803,465.497,603.993,467.007,604.334z"/>
		</g>
	</g>
	<g>
		<g>
			<path d="M581.249,530.327c12.251,16.4,21.619,34.857,25.396,55.091c3.832,20.524-0.518,40.771-10.934,58.679
				c-10.674,18.351-27.249,32.553-44.182,44.926c-14.757,10.782-33.127,19.861-40.965,37.357c2.179-0.148,4.358-0.295,6.537-0.443
				c-6.771-16.682-23.777-24.332-38.287-33.065c-17.896-10.771-33.036-24.421-43.683-42.518
				c-10.522-17.884-15.186-38.729-14.201-59.376c0.522-10.933,2.91-21.715,6.664-31.976c3.557-9.722,8.442-19.845,16.859-26.229
				c3.607-2.735-1.732-5.364-4.484-3.277c-16.088,12.201-22.751,35.763-25.196,54.897c-2.618,20.491,0.941,41.834,9.826,60.452
				c9.05,18.963,22.849,34.241,40.048,46.179c15.377,10.673,38.21,18.03,45.787,36.699c1.092,2.69,5.478,1.923,6.537-0.443
				c3.983-8.891,11.1-15.181,18.806-20.851c8.511-6.263,17.431-11.93,25.861-18.315c16.723-12.664,31.793-27.565,42.112-45.975
				c21.361-38.109,8.225-81.829-16.422-114.821C585.413,524.751,579.1,527.451,581.249,530.327L581.249,530.327z"/>
		</g>
	</g>
	<g>
		<g>
			<path d="M504.423,543.605c3.815,0,5.109-4.895,0.587-4.895C501.195,538.71,499.901,543.605,504.423,543.605L504.423,543.605z"/>
		</g>
	</g>
	<g>
		<g>
			<path d="M501.349,541.51c-0.04,7.203-2.901,13.323-6.721,19.292c-3.954,6.179-8.496,12.526-14.18,17.211
				c-1.162,0.958-0.595,2.331,0.716,2.671c1.668,0.433,3.431-0.207,4.713-1.263c5.655-4.661,9.932-10.875,14.081-16.855
				c4.509-6.498,8.043-13.731,8.088-21.773C508.062,537.732,501.363,539.038,501.349,541.51L501.349,541.51z"/>
		</g>
	</g>
	<g>
		<g>
			<path d="M508.441,542.755c3.571,11.861,4.326,24.055,4.134,36.381c-0.172,11.02,0.79,24.661-4.875,34.518
				c-1.819,3.165,4.957,3.054,6.341,0.646c5.72-9.954,4.902-22.749,5.226-33.85c0.388-13.298-0.307-26.676-4.162-39.48
				C514.222,538.032,507.567,539.852,508.441,542.755L508.441,542.755z"/>
		</g>
	</g>
	<g>
		<g>
			<path d="M551.701,580.282c0.954-18.897-12.931-32.267-26.943-42.723c-1.766-1.318-7.817,1.314-6.216,2.509
				c13.362,9.971,27.438,22.986,26.521,41.15C544.938,583.703,551.601,582.274,551.701,580.282L551.701,580.282z"/>
		</g>
	</g>
	<g>
		<g>
			<path d="M658.632,436.703c2.905,7.163,11.985,12.546,18.345,16.284c7.424,4.362,15.712,7.182,24.118,8.909
				c16.79,3.448,34.824,0.933,50.609-5.461c16.428-6.654,29.733-17.341,41.231-30.692c12.487-14.5,22.891-30.814,38.27-42.569
				c0.537-0.41,0.335-0.784-0.244-0.912c-2.921-0.645-6.604-5.265-8.733-7.297c-3.776-3.604-7.214-7.554-10.557-11.556
				c-5.836-6.986-11.232-14.329-16.994-21.377c-12.018-14.7-26.186-26.578-44.122-33.318c-15.77-5.926-33.355-6.867-49.69-2.789
				c-7.976,1.991-15.565,4.969-22.727,9.007c-6.536,3.685-15.852,9.47-18.761,16.704c-0.374,0.931,5.904,0.378,6.555-1.242
				c2.359-5.866,9.448-10.47,14.573-13.815c6.532-4.264,13.897-7.261,21.489-8.994c14.608-3.334,29.92-1.306,43.818,3.916
				c12.951,4.867,24.322,13.046,33.915,22.915c9.631,9.908,17.463,21.423,26.305,32.007c3.805,4.555,7.857,8.89,12.215,12.921
				c1.591,1.471,4.374,4.747,6.516,5.22c-1.111-0.246-5.335,3.974-6.904,5.414c-9.57,8.779-17.291,19.412-25.34,29.537
				c-8.905,11.201-18.483,21.605-30.674,29.282c-12.944,8.151-27.883,12.347-43.164,12.026c-10.278-0.216-20.454-2.893-29.778-7.122
				c-4.328-1.963-8.393-4.46-12.259-7.211c-4.118-2.93-9.406-6.791-11.344-11.572C664.706,433.46,658.2,435.637,658.632,436.703
				L658.632,436.703z"/>
		</g>
	</g>
	<g>
		<g>
			<path d="M790.574,390.107c2.094-7.246,3.023-16.133-0.18-23.211c-1.47-3.248-4.763-5.664-7.304-8.03
				c-2.861-2.665-5.583-5.494-8.949-7.523c-5.041-3.04-13.453-2.682-18.749-0.645c-7.477,2.875-11.029,9.044-13.564,16.313
				c-4.617,13.243-3.335,34.777,10.821,41.745c15.224,7.493,28.236-7.941,37.555-17.478c2.747-2.811-3.795-2.734-5.356-1.137
				c-7.783,7.964-18.05,22.343-30.214,13.397c-8.993-6.614-9.234-22.712-7.442-32.416c1.094-5.928,3.567-13.244,8.771-16.745
				c6.26-4.211,13.866,0.524,18.343,4.694c4.34,4.042,9.365,7.587,10.763,13.639c1.381,5.98,0.515,12.405-1.165,18.217
				C783.203,393.354,789.913,392.394,790.574,390.107L790.574,390.107z"/>
		</g>
	</g>
	<g>
		<g>
			<path d="M736.422,349.59c1.167-5.166,1.413-10.452-0.196-15.561c-1.36-4.321-5.798-4.764-9.53-5.81
				c-8.395-2.352-16.653,1.053-20.307,9.159c-3.731,8.277,1.518,19.529,10.183,21.771c7.564,1.957,16.481-3.065,18.752-10.346
				c-2.142,0.574-4.285,1.148-6.427,1.722c0.366,0.262,0.732,0.524,1.098,0.787c1.542,1.104,7.296-1.56,6.274-2.292
				c-0.366-0.262-0.732-0.524-1.098-0.787c-1.229-0.88-5.943,0.17-6.427,1.722c-0.668,2.141-1.522,3.701-3.092,5.351
				c-4.112,4.321-9.24-1.826-11.023-4.534c-2.847-4.324-3.267-9.728-1.66-14.546c2.275-6.822,9.19-6.391,14.522-3.363
				c4.922,2.795,3.273,13.798,2.352,17.879C729.49,352.303,736.042,351.276,736.422,349.59z"/>
		</g>
	</g>
	<g>
		<g>
			<path d="M734.314,425.682c1.167-5.166,1.413-10.452-0.196-15.561c-1.36-4.321-5.798-4.764-9.53-5.81
				c-8.395-2.352-16.653,1.052-20.307,9.159c-3.731,8.277,1.518,19.529,10.183,21.771c7.564,1.957,16.481-3.065,18.752-10.346
				c-2.142,0.574-4.285,1.148-6.427,1.722c0.366,0.262,0.732,0.524,1.098,0.787c1.542,1.104,7.296-1.56,6.274-2.292
				c-0.366-0.262-0.732-0.524-1.098-0.787c-1.229-0.88-5.943,0.17-6.427,1.722c-0.668,2.141-1.522,3.701-3.092,5.351
				c-4.112,4.321-9.24-1.826-11.023-4.534c-2.847-4.324-3.267-9.728-1.66-14.546c2.275-6.822,9.19-6.391,14.522-3.363
				c4.922,2.795,3.273,13.798,2.352,17.879C727.382,428.395,733.933,427.367,734.314,425.682z"/>
		</g>
	</g>
	<g>
		<g>
			<path d="M659.068,313.345c16.105-12.031,34.243-21.198,54.108-24.906c20.959-3.913,41.733,1.189,59.632,12.356
				c17.842,11.131,31.648,27.488,43.842,44.356c10.423,14.419,19.278,31.801,36.284,39.419c0.129-1.479,0.258-2.959,0.387-4.438
				c-15.771,6.401-23.709,22.165-31.817,36.065c-10.807,18.526-24.519,34.65-43.155,45.613
				c-17.494,10.292-37.794,15.067-58.029,14.101c-10.903-0.521-21.636-2.904-31.868-6.647c-9.774-3.576-19.86-8.526-26.274-16.984
				c-1.937-2.554-8.249,0.151-6.082,3.009c12.169,16.044,35.896,22.651,54.959,25.087c21.088,2.695,42.554-1.08,61.799-9.925
				c18.676-8.584,34.125-22.444,45.971-39.099c11.111-15.622,18.452-39.29,37.518-47.028c2.076-0.843,2.568-3.461,0.387-4.438
				c-9.365-4.195-15.915-12.02-21.791-20.171c-6.225-8.636-12.001-17.558-18.487-26.011c-12.623-16.45-27.734-31.749-46.31-41.377
				c-38.945-20.185-82.156-7.211-115.559,17.742C650.958,312.777,656.306,315.409,659.068,313.345L659.068,313.345z"/>
		</g>
	</g>
	<g>
		<g>
			<path d="M668.867,393.728c3.815,0,5.109-4.895,0.587-4.895C665.639,388.833,664.345,393.728,668.867,393.728L668.867,393.728z"/>
		</g>
	</g>
	<g>
		<g>
			<path d="M667.909,393.382c7.489,0.042,13.778,3.449,19.855,7.515c5.703,3.816,11.492,7.982,15.877,13.302
				c1.628,1.975,8.022-0.464,6.158-2.726c-4.971-6.031-11.738-10.643-18.189-14.96c-6.369-4.262-13.468-7.25-21.21-7.294
				C667.651,389.204,663.396,393.357,667.909,393.382L667.909,393.382z"/>
		</g>
	</g>
	<g>
		<g>
			<path d="M670.446,386.391c11.472-3.454,23.306-4.201,35.228-4.015c10.659,0.166,24.188-0.864,33.721,4.615
				c2.407,1.383,8.33-1.913,5.169-3.73c-10.254-5.893-23.202-5.152-34.647-5.486c-13.7-0.4-27.441,0.31-40.633,4.281
				C665.247,383.272,666.369,387.618,670.446,386.391L670.446,386.391z"/>
		</g>
	</g>
	<g>
		<g>
			<path d="M710.092,345.886c-20.255-1.022-35.094,13.395-46.354,28.485c-1.677,2.247,4.975,1.533,6.155-0.048
				c9.13-12.236,20.787-25.824,37.519-24.98C709.724,349.46,714.583,346.113,710.092,345.886L710.092,345.886z"/>
		</g>
	</g>
</g>
<g id="Слой_6">
	<g>
		<g>
			<path d="M320.552,288.423c-0.698-11.868,4.338-22.78,8.901-33.444c4.423-10.337,9.71-19.658,18.445-26.954
				c8.704-7.27,18.129-13.975,27.348-20.578c11.451-8.202,24.535-10.628,38.377-10.759c1.285-0.012,7.546-2.573,4.37-2.543
				c-11.59,0.109-23.398,1.466-34.215,5.862c-12.43,5.052-22.784,14.182-33.409,22.164c-5.209,3.913-10.734,7.701-15.005,12.682
				c-4.352,5.075-7.586,10.773-10.43,16.799c-5.611,11.887-11.838,25.12-11.047,38.557
				C313.945,291.208,320.651,290.111,320.552,288.423L320.552,288.423z"/>
		</g>
	</g>
	<g>
		<g>
			<path d="M297.452,286.799c8.584-25.856,17.998-53.972,37.095-74.108c19.036-20.073,46.292-30.506,73.807-29.24
				c2.741,0.126,7.026-3.894,2.506-4.102c-28.932-1.331-57.112,8.889-78.326,28.614c-22.15,20.596-32.485,51.595-41.774,79.573
				C289.915,290.085,296.65,289.214,297.452,286.799L297.452,286.799z"/>
		</g>
	</g>
	<g>
		<g>
			<path d="M298.886,275.669c6.724,0.187,16.753,0.058,21.755-5.198c2.893-3.04-3.528-4.098-5.573-1.948
				c-1.29,1.355-4.899,1.611-6.622,1.892c-2.384,0.389-4.835,0.499-7.246,0.432c-1.621-0.045-3.565,0.423-4.341,2.036
				C296.176,274.3,297.458,275.629,298.886,275.669L298.886,275.669z"/>
		</g>
	</g>
	<g>
		<g>
			<path d="M307.257,246.906c0.632,3.995,2.359,7.429,4.227,10.974c1.706,3.239,4.305,7.258,2.645,10.947
				c-0.822,1.826,5.728,1.105,6.641-0.924c1.634-3.631-0.284-7.186-1.928-10.479c-2.018-4.043-4.204-7.775-4.92-12.304
				C313.599,243.08,306.897,244.627,307.257,246.906L307.257,246.906z"/>
		</g>
	</g>
	<g>
		<g>
			<path d="M308.604,247.865c5.46,0.095,10.496-1.233,15.507-3.34c4.816-2.026,10.08-4.157,13.178-8.545
				c0.732-1.036-2.482-0.76-2.689-0.724c-1.336,0.232-3.068,0.693-3.894,1.864c-3.257,4.613-12.423,8.027-17.805,7.934
				c-1.601-0.028-3.361,0.378-4.713,1.263C307.15,246.994,307.289,247.842,308.604,247.865L308.604,247.865z"/>
		</g>
	</g>
	<g>
		<g>
			<path d="M324.225,217.779c1.071,3.053,2.057,6.126,2.964,9.231c0.818,2.804,3.537,9.019,2.249,11.839
				c-1.444,3.163,5.249,2.601,6.268,0.371c1.414-3.096,0.189-6.137-0.593-9.314c-1.159-4.709-2.618-9.339-4.222-13.913
				C329.976,213.386,323.351,215.286,324.225,217.779L324.225,217.779z"/>
		</g>
	</g>
	<g>
		<g>
			<path d="M327.013,217.108c8.465,2.496,17.038,3.289,25.828,2.658c3.305-0.237,5.513-4.07,0.897-3.739
				c-7.716,0.553-15.246-0.392-22.654-2.576C328.943,212.821,323.24,215.996,327.013,217.108L327.013,217.108z"/>
		</g>
	</g>
	<g>
		<g>
			<path d="M347.354,198.582c1.518,7.48,2.283,15,2.301,22.632c0.004,1.79,6.671,0.607,6.665-1.786
				c-0.018-7.632-0.783-15.152-2.301-22.632C353.604,194.75,346.91,196.394,347.354,198.582L347.354,198.582z"/>
		</g>
	</g>
	<g>
		<g>
			<path d="M349.037,199.877c8.767,3.188,15.283,9.606,25.225,7.581c4.214-0.858,2.892-5.491-1.245-4.648
				c-7.052,1.436-13.839-5.188-20.148-7.482C349.979,194.276,345.046,198.426,349.037,199.877L349.037,199.877z"/>
		</g>
	</g>
	<g>
		<g>
			<path d="M370.462,186.749c1.131,7.043,1.039,14.005-0.318,21.014c-0.394,2.033,6.246,0.88,6.614-1.022
				c1.403-7.244,1.539-14.488,0.368-21.778C376.84,183.182,370.133,184.7,370.462,186.749L370.462,186.749z"/>
		</g>
	</g>
	<g>
		<g>
			<path d="M374.078,188.744c4.379,1.511,7.456,4.006,10.909,6.96c3.438,2.941,8.177,0.773,11.863,2.591
				c2.778,1.37,7.656-2.646,3.838-4.529c-3.691-1.82-8.32-0.01-11.493-2.725c-3.503-2.997-6.884-5.31-11.279-6.826
				C375.035,183.221,370.075,187.363,374.078,188.744L374.078,188.744z"/>
		</g>
	</g>
	<g>
		<g>
			<path d="M395.87,183.555c-0.72,5.42-1.995,10.683-3.837,15.832c-0.781,2.184,5.877,1.321,6.658-0.861
				c1.842-5.148,3.117-10.411,3.837-15.832C402.871,180.111,396.163,181.347,395.87,183.555L395.87,183.555z"/>
		</g>
	</g>
	<g>
		<g>
			<path d="M322.489,260.192c6.959,6.967,19.641,6.45,28.775,6.412c9.441-0.039,18.739-2.294,26.331-8.053
				c16.328-12.384,16.499-38.393,4.361-53.458c-1.271-1.578-7.106,1.238-6.665,1.786c9.754,12.106,11.233,29.003,4.058,42.75
				c-5.276,10.108-14.316,14.276-25.38,14.322c-8.242,0.034-18.997,0.199-25.194-6.006
				C327.578,256.747,321.515,259.217,322.489,260.192L322.489,260.192z"/>
		</g>
	</g>
	<g>
		<g>
			<path d="M375.931,258.799c3.629,1.974,6.236,5.467,9,8.457c3.176,3.436,6.352,6.872,9.528,10.309
				c1.143,1.236,7.304-1.16,6.281-2.266c-3.176-3.436-6.352-6.872-9.528-10.309c-2.764-2.99-5.371-6.483-9.001-8.457
				C380.513,255.609,375.115,258.355,375.931,258.799L375.931,258.799z"/>
		</g>
	</g>
	<g>
		<g>
			<path d="M385.728,231.357c8.908,1.077,17.771,2.425,26.596,4.046c4.411,0.81,8.802,1.724,13.183,2.679
				c2.46,0.536,4.676,2.154,7.182,2.117c1.238-0.018,4.313-0.595,4.674-2.136c0.135-0.577,0.063-0.815-0.356-1.234
				c-1.286-1.281-4.583,0.017-5.733,0.884c-0.053,0.04-0.105,0.079-0.158,0.119c-2.896,2.182,3.804,1.767,5.236,0.688
				c0.053-0.04,0.105-0.079,0.158-0.119c-1.911,0.295-3.822,0.589-5.733,0.884c-0.012-0.078-0.025-0.156-0.037-0.234
				c1.558-0.712,3.116-1.424,4.674-2.136c1.679-0.024-0.129-0.534-0.803-0.768c-1.615-0.561-3.247-0.907-4.914-1.279
				c-4.377-0.976-8.777-1.848-13.183-2.679c-8.814-1.662-17.693-2.97-26.596-4.046C388.14,227.928,382.131,230.922,385.728,231.357
				L385.728,231.357z"/>
		</g>
	</g>
	<g>
		<g>
			<path d="M354.618,267.172c0.266,14.963,4.718,30.258,7.506,44.914c0.296,1.555,7.002-0.014,6.665-1.786
				c-2.788-14.656-7.24-29.951-7.506-44.914C361.26,264.1,354.583,265.163,354.618,267.172L354.618,267.172z"/>
		</g>
	</g>
	<g>
		<g>
			<path d="M420.256,574.195c-12.699,0.747-25.339-5.708-36.608-10.862c-5.031-2.301-9.827-5.016-14.261-8.328
				c-5.493-4.104-9.54-9.711-13.617-15.139c-7.076-9.419-15.122-18.636-20.572-29.127c-5.513-10.613-6.87-23.012-6.981-34.793
				c-0.009-0.903-6.681,0.027-6.665,1.786c0.119,12.585,1.905,25.024,7.766,36.304c2.937,5.654,7.071,10.688,10.882,15.761
				c4.384,5.836,8.709,11.722,13.187,17.487c7.539,9.705,17.419,15.451,28.532,20.289c11.344,4.939,22.784,9.829,35.393,9.087
				C418.934,576.565,424.637,573.938,420.256,574.195L420.256,574.195z"/>
		</g>
	</g>
	<g>
		<g>
			<path d="M418.641,596.598c-26.382-8.759-54.961-18.434-75.221-38.261c-20.097-19.668-30.493-47.706-29.207-75.666
				c0.137-2.989-6.578-1.716-6.691,0.737c-1.308,28.447,8.887,55.946,28.612,76.502c20.528,21.393,51.032,31.454,78.496,40.572
				C416.954,601.254,422.472,597.87,418.641,596.598L418.641,596.598z"/>
		</g>
	</g>
	<g>
		<g>
			<path d="M406.101,592.347c0.094-3.392-0.131-6.726-0.678-10.076c-0.485-2.968-1.132-6.778-3.407-8.943
				c-2.171-2.066-8.466,0.681-6.103,2.929c3.663,3.485,3.567,11.978,3.438,16.605C399.254,596.34,406.018,595.337,406.101,592.347
				L406.101,592.347z"/>
		</g>
	</g>
	<g>
		<g>
			<path d="M374.984,583.743c3.078-0.487,5.915-1.381,8.755-2.66c2.861-1.289,8.256-5.781,11.421-4.356
				c1.82,0.819,7.949-1.888,5.349-3.058c-8.55-3.847-16.546,5.441-24.529,6.703C372.93,580.854,370.354,584.475,374.984,583.743
				L374.984,583.743z"/>
		</g>
	</g>
	<g>
		<g>
			<path d="M379.259,581.002c0.085-4.901-1.419-9.23-3.411-13.649c-1.661-3.684-3.311-7.467-6.696-9.856
				c-1.566-1.105-7.323,1.562-6.271,2.305c3.602,2.543,5.202,6.897,6.959,10.797c1.757,3.899,2.828,7.901,2.753,12.189
				C372.574,583.947,379.225,583.005,379.259,581.002L379.259,581.002z"/>
		</g>
	</g>
	<g>
		<g>
			<path d="M346.862,566.985c3.053-1.071,6.126-2.057,9.231-2.964c2.016-0.588,7.82-3.117,9.789-2.218
				c2.2,1.005,8.237-2.088,5.242-3.456c-3.301-1.508-6.388-0.562-9.795,0.238c-5.246,1.231-10.4,2.826-15.482,4.608
				C341.96,564.557,342.871,568.385,346.862,566.985L346.862,566.985z"/>
		</g>
	</g>
	<g>
		<g>
			<path d="M348.082,563.187c2.387-8.096,3.219-16.312,2.616-24.722c-0.159-2.214-6.85-0.798-6.665,1.786
				c0.581,8.103-0.324,15.975-2.619,23.759C340.704,566.419,347.41,565.467,348.082,563.187L348.082,563.187z"/>
		</g>
	</g>
	<g>
		<g>
			<path d="M326.652,543.621c7.209-1.463,14.438-2.219,21.796-2.236c2.272-0.005,7.171-3.461,2.681-3.45
				c-7.904,0.019-15.72,0.793-23.468,2.365c-1.209,0.245-3.393,0.71-3.823,2.129C323.425,543.795,325.958,543.762,326.652,543.621
				L326.652,543.621z"/>
		</g>
	</g>
	<g>
		<g>
			<path d="M330.262,542.096c2.947-8.105,9.547-14.777,7.672-23.981c-0.641-3.146-7.317-1.415-6.665,1.786
				c1.613,7.919-4.845,14.391-7.391,21.391C322.55,544.945,329.231,544.932,330.262,542.096L330.262,542.096z"/>
		</g>
	</g>
	<g>
		<g>
			<path d="M314.779,520.36c6.664-1.07,13.216-0.883,19.835,0.399c1.721,0.333,7.781-2.435,4.214-3.125
				c-7.628-1.477-15.292-1.519-22.958-0.288C312.971,517.811,310.125,521.107,314.779,520.36L314.779,520.36z"/>
		</g>
	</g>
	<g>
		<g>
			<path d="M319.137,517.045c1.503-4.356,3.94-7.498,6.892-10.948c3.01-3.518,0.785-8.023,2.659-11.823
				c1.689-3.425-5.061-3.463-6.38-0.789c-1.823,3.697,0.061,8.356-2.657,11.532c-2.993,3.498-5.374,6.834-6.894,11.239
				C311.492,519.924,318.16,519.878,319.137,517.045L319.137,517.045z"/>
		</g>
	</g>
	<g>
		<g>
			<path d="M310.543,495.225c5.208,0.691,10.274,1.878,15.223,3.648c1.529,0.547,3.344,0.18,4.715-0.64
				c0.769-0.46,2.143-1.986,0.602-2.537c-5.347-1.913-10.809-3.277-16.441-4.025c-1.611-0.214-3.458,0.175-4.713,1.263
				C308.927,493.803,309.124,495.036,310.543,495.225L310.543,495.225z"/>
		</g>
	</g>
	<g>
		<g>
			<path d="M391.548,566.743c7.013-7.005,6.565-19.191,6.527-28.421c-0.048-11.595-4.351-21.299-13.981-27.954
				c-15.235-10.528-37.775-7.251-51.651,3.928c-1.386,1.117,4.8,0.44,6.022-0.545c13.781-11.103,33.639-8.209,45.583,4.156
				c6.096,6.311,7.334,15.464,7.369,23.833c0.034,8.168,0.282,19.382-5.891,25.548C384.158,568.654,390.439,567.85,391.548,566.743
				L391.548,566.743z"/>
		</g>
	</g>
	<g>
		<g>
			<path d="M390.42,512.986c1.896-3.485,5.313-6.01,8.187-8.666c3.436-3.176,6.872-6.352,10.309-9.528
				c1.123-1.038-0.989-1.128-1.57-1.079c-1.463,0.123-3.346,0.558-4.461,1.589c-3.436,3.176-6.872,6.352-10.309,9.528
				c-3.102,2.867-6.679,5.568-8.728,9.335C383.357,515.067,389.509,514.662,390.42,512.986L390.42,512.986z"/>
		</g>
	</g>
	<g>
		<g>
			<path d="M362.53,504.329c1.077-8.908,2.425-17.771,4.046-26.596c0.81-4.411,1.724-8.802,2.679-13.183
				c0.475-2.178,2.134-4.745,2.103-6.848c-0.117-0.294-0.331-0.486-0.642-0.574c-2.26-0.53-4.599,0.04-6.255,1.702
				c-0.373,0.375-0.339,0.771-0.051,1.153c0.04,0.053,0.079,0.105,0.119,0.158c1.171,1.554,7.591-0.65,6.23-2.456
				c0.018,0.257,0.036,0.514,0.054,0.771c-1.918,0.514-3.837,1.028-5.755,1.542c-3.006-0.704-8.588,40.655-9.152,45.321
				C355.635,507.564,362.297,506.259,362.53,504.329L362.53,504.329z"/>
		</g>
	</g>
	<g>
		<g>
			<path d="M394.327,536.125c15.261-0.271,30.799-4.763,45.741-7.605c2.715-0.517,5.848-3.547,1.186-2.661
				c-14.369,2.733-29.425,7.147-44.087,7.407C395.284,533.3,389.89,536.204,394.327,536.125L394.327,536.125z"/>
		</g>
	</g>
	<g>
		<g>
			<path d="M703.864,477.056c0.698,11.868-4.338,22.78-8.901,33.444c-4.423,10.337-9.71,19.658-18.445,26.954
				c-8.704,7.27-18.129,13.975-27.348,20.578c-11.451,8.202-24.535,10.628-38.377,10.759c-1.285,0.012-7.546,2.573-4.37,2.543
				c11.59-0.109,23.398-1.466,34.215-5.862c12.43-5.052,22.784-14.182,33.409-22.164c5.209-3.913,10.734-7.701,15.005-12.682
				c4.352-5.075,7.586-10.773,10.43-16.799c5.611-11.888,11.838-25.12,11.047-38.557
				C710.47,474.271,703.764,475.367,703.864,477.056L703.864,477.056z"/>
		</g>
	</g>
	<g>
		<g>
			<path d="M726.963,478.68c-8.584,25.856-17.998,53.972-37.095,74.108c-19.036,20.073-46.292,30.506-73.807,29.24
				c-2.741-0.126-7.026,3.894-2.506,4.102c28.932,1.331,57.112-8.889,78.326-28.614c22.15-20.596,32.485-51.595,41.774-79.573
				C734.5,475.393,727.765,476.265,726.963,478.68L726.963,478.68z"/>
		</g>
	</g>
	<g>
		<g>
			<path d="M725.529,489.81c-6.724-0.187-16.753-0.058-21.755,5.198c-2.893,3.04,3.528,4.098,5.573,1.948
				c1.29-1.355,4.899-1.611,6.622-1.892c2.384-0.389,4.835-0.499,7.246-0.432c1.621,0.045,3.565-0.423,4.341-2.036
				C728.239,491.179,726.958,489.85,725.529,489.81L725.529,489.81z"/>
		</g>
	</g>
	<g>
		<g>
			<path d="M717.158,518.573c-0.632-3.995-2.359-7.429-4.227-10.974c-1.706-3.239-4.305-7.258-2.645-10.947
				c0.822-1.826-5.728-1.105-6.641,0.924c-1.634,3.631,0.284,7.186,1.928,10.479c2.018,4.043,4.204,7.775,4.92,12.304
				C710.816,522.399,717.519,520.852,717.158,518.573L717.158,518.573z"/>
		</g>
	</g>
	<g>
		<g>
			<path d="M715.812,517.614c-5.46-0.095-10.496,1.233-15.507,3.34c-4.816,2.026-10.08,4.157-13.178,8.545
				c-0.732,1.036,2.482,0.76,2.689,0.724c1.336-0.232,3.068-0.693,3.894-1.864c3.257-4.613,12.423-8.027,17.805-7.934
				c1.601,0.028,3.361-0.378,4.713-1.263C717.265,518.484,717.126,517.637,715.812,517.614L715.812,517.614z"/>
		</g>
	</g>
	<g>
		<g>
			<path d="M700.19,547.7c-1.071-3.053-2.057-6.126-2.964-9.231c-0.818-2.804-3.537-9.019-2.249-11.839
				c1.444-3.163-5.249-2.601-6.268-0.371c-1.414,3.096-0.189,6.137,0.593,9.314c1.159,4.709,2.618,9.339,4.222,13.913
				C694.44,552.093,701.064,550.193,700.19,547.7L700.19,547.7z"/>
		</g>
	</g>
	<g>
		<g>
			<path d="M697.402,548.371c-8.465-2.496-17.038-3.289-25.828-2.658c-3.305,0.237-5.513,4.07-0.897,3.739
				c7.716-0.553,15.246,0.392,22.654,2.576C695.472,552.658,701.175,549.483,697.402,548.371L697.402,548.371z"/>
		</g>
	</g>
	<g>
		<g>
			<path d="M677.061,566.897c-1.518-7.48-2.283-15-2.301-22.632c-0.004-1.79-6.671-0.607-6.665,1.786
				c0.018,7.632,0.782,15.152,2.301,22.632C670.812,570.729,677.505,569.085,677.061,566.897L677.061,566.897z"/>
		</g>
	</g>
	<g>
		<g>
			<path d="M675.379,565.602c-8.767-3.188-15.283-9.606-25.225-7.581c-4.214,0.858-2.892,5.491,1.245,4.648
				c7.052-1.436,13.839,5.188,20.148,7.482C674.437,571.203,679.369,567.053,675.379,565.602L675.379,565.602z"/>
		</g>
	</g>
	<g>
		<g>
			<path d="M653.954,578.73c-1.131-7.043-1.039-14.005,0.318-21.014c0.394-2.033-6.246-0.88-6.614,1.022
				c-1.403,7.244-1.539,14.488-0.368,21.778C647.575,582.297,654.283,580.779,653.954,578.73L653.954,578.73z"/>
		</g>
	</g>
	<g>
		<g>
			<path d="M650.338,576.735c-4.379-1.511-7.456-4.006-10.909-6.96c-3.438-2.941-8.177-0.773-11.863-2.591
				c-2.778-1.37-7.656,2.646-3.838,4.529c3.692,1.82,8.32,0.01,11.493,2.725c3.503,2.997,6.884,5.31,11.279,6.826
				C649.381,582.258,654.34,578.116,650.338,576.735L650.338,576.735z"/>
		</g>
	</g>
	<g>
		<g>
			<path d="M628.545,581.924c0.72-5.42,1.995-10.683,3.837-15.832c0.781-2.184-5.877-1.321-6.658,0.861
				c-1.842,5.148-3.117,10.411-3.837,15.832C621.544,585.368,628.252,584.132,628.545,581.924L628.545,581.924z"/>
		</g>
	</g>
	<g>
		<g>
			<path d="M701.926,505.287c-6.959-6.967-19.641-6.45-28.775-6.412c-9.441,0.039-18.739,2.294-26.331,8.053
				c-16.328,12.384-16.499,38.393-4.361,53.458c1.271,1.578,7.106-1.238,6.665-1.786c-9.754-12.106-11.233-29.003-4.058-42.75
				c5.276-10.108,14.316-14.276,25.38-14.322c8.242-0.034,18.997-0.199,25.194,6.006C696.837,508.732,702.9,506.262,701.926,505.287
				L701.926,505.287z"/>
		</g>
	</g>
	<g>
		<g>
			<path d="M648.484,506.68c-3.629-1.974-6.236-5.467-9-8.457c-3.176-3.436-6.352-6.872-9.528-10.309
				c-1.143-1.236-7.304,1.16-6.281,2.266c3.176,3.436,6.352,6.872,9.528,10.309c2.764,2.99,5.371,6.483,9.001,8.457
				C643.902,509.87,649.3,507.124,648.484,506.68L648.484,506.68z"/>
		</g>
	</g>
	<g>
		<g>
			<path d="M638.687,534.122c-8.908-1.077-17.771-2.425-26.596-4.046c-4.411-0.81-8.802-1.724-13.183-2.679
				c-2.46-0.536-4.676-2.154-7.182-2.117c-1.238,0.018-4.313,0.594-4.674,2.136c-0.135,0.577-0.063,0.815,0.356,1.234
				c1.286,1.281,4.583-0.017,5.733-0.884c0.053-0.04,0.105-0.079,0.158-0.119c2.896-2.182-3.804-1.767-5.236-0.688
				c-0.053,0.04-0.105,0.079-0.158,0.119c1.911-0.294,3.822-0.589,5.733-0.884c0.012,0.078,0.025,0.156,0.037,0.234
				c-1.558,0.712-3.116,1.424-4.674,2.136c-1.679,0.024,0.129,0.534,0.803,0.768c1.615,0.561,3.247,0.907,4.914,1.279
				c4.377,0.976,8.777,1.848,13.183,2.679c8.814,1.662,17.693,2.97,26.596,4.046C636.276,537.551,642.285,534.557,638.687,534.122
				L638.687,534.122z"/>
		</g>
	</g>
	<g>
		<g>
			<path d="M669.797,498.307c-0.266-14.963-4.718-30.258-7.506-44.914c-0.296-1.555-7.002,0.014-6.665,1.786
				c2.788,14.656,7.24,29.951,7.506,44.914C663.155,501.378,669.832,500.316,669.797,498.307L669.797,498.307z"/>
		</g>
	</g>
	<g>
		<g>
			<path d="M606.459,191.283c12.699-0.747,25.339,5.708,36.608,10.862c5.031,2.301,9.827,5.016,14.261,8.328
				c5.493,4.104,9.54,9.712,13.617,15.139c7.076,9.419,15.122,18.636,20.572,29.127c5.513,10.613,6.87,23.012,6.981,34.793
				c0.008,0.903,6.681-0.027,6.665-1.786c-0.119-12.585-1.905-25.024-7.766-36.304c-2.937-5.654-7.071-10.688-10.882-15.761
				c-4.384-5.836-8.709-11.723-13.187-17.487c-7.539-9.705-17.419-15.451-28.532-20.289c-11.344-4.939-22.784-9.829-35.393-9.087
				C607.781,188.914,602.079,191.541,606.459,191.283L606.459,191.283z"/>
		</g>
	</g>
	<g>
		<g>
			<path d="M608.075,168.88c26.382,8.759,54.961,18.434,75.221,38.261c20.097,19.669,30.493,47.706,29.207,75.666
				c-0.137,2.989,6.578,1.716,6.691-0.737c1.308-28.447-8.887-55.946-28.612-76.502c-20.528-21.393-51.032-31.454-78.496-40.572
				C609.761,164.225,604.243,167.608,608.075,168.88L608.075,168.88z"/>
		</g>
	</g>
	<g>
		<g>
			<path d="M620.614,173.132c-0.094,3.392,0.131,6.726,0.678,10.076c0.484,2.968,1.132,6.778,3.407,8.943
				c2.171,2.066,8.466-0.681,6.103-2.929c-3.662-3.485-3.567-11.978-3.438-16.605C627.461,169.139,620.697,170.141,620.614,173.132
				L620.614,173.132z"/>
		</g>
	</g>
	<g>
		<g>
			<path d="M651.732,181.735c-3.078,0.487-5.915,1.381-8.755,2.66c-2.861,1.289-8.256,5.781-11.421,4.356
				c-1.82-0.819-7.95,1.888-5.349,3.058c8.55,3.847,16.546-5.441,24.529-6.703C653.785,184.625,656.361,181.004,651.732,181.735
				L651.732,181.735z"/>
		</g>
	</g>
	<g>
		<g>
			<path d="M647.456,184.477c-0.085,4.901,1.419,9.23,3.411,13.649c1.661,3.684,3.311,7.467,6.695,9.856
				c1.566,1.106,7.323-1.561,6.271-2.305c-3.602-2.543-5.202-6.897-6.959-10.797c-1.757-3.899-2.828-7.901-2.753-12.189
				C654.141,181.532,647.491,182.474,647.456,184.477L647.456,184.477z"/>
		</g>
	</g>
	<g>
		<g>
			<path d="M679.853,198.494c-3.053,1.071-6.126,2.057-9.231,2.964c-2.016,0.588-7.82,3.117-9.789,2.218
				c-2.2-1.005-8.237,2.088-5.242,3.456c3.301,1.508,6.388,0.562,9.796-0.238c5.246-1.231,10.4-2.826,15.482-4.608
				C684.755,200.922,683.844,197.094,679.853,198.494L679.853,198.494z"/>
		</g>
	</g>
	<g>
		<g>
			<path d="M678.633,202.292c-2.387,8.096-3.219,16.312-2.616,24.722c0.159,2.214,6.85,0.798,6.665-1.786
				c-0.581-8.103,0.324-15.975,2.619-23.759C686.011,199.06,679.305,200.012,678.633,202.292L678.633,202.292z"/>
		</g>
	</g>
	<g>
		<g>
			<path d="M700.063,221.858c-7.209,1.463-14.438,2.219-21.796,2.236c-2.272,0.005-7.171,3.461-2.681,3.45
				c7.904-0.019,15.72-0.793,23.468-2.365c1.209-0.245,3.393-0.71,3.823-2.129C703.29,221.683,700.757,221.717,700.063,221.858
				L700.063,221.858z"/>
		</g>
	</g>
	<g>
		<g>
			<path d="M696.453,223.383c-2.947,8.105-9.547,14.777-7.672,23.981c0.641,3.146,7.317,1.415,6.665-1.786
				c-1.613-7.919,4.845-14.391,7.391-21.391C704.165,220.534,697.484,220.547,696.453,223.383L696.453,223.383z"/>
		</g>
	</g>
	<g>
		<g>
			<path d="M711.936,245.119c-6.664,1.07-13.216,0.883-19.835-0.399c-1.721-0.333-7.781,2.434-4.214,3.125
				c7.628,1.477,15.292,1.519,22.957,0.288C713.744,247.668,716.59,244.371,711.936,245.119L711.936,245.119z"/>
		</g>
	</g>
	<g>
		<g>
			<path d="M707.578,248.434c-1.503,4.356-3.94,7.498-6.892,10.948c-3.01,3.518-0.785,8.023-2.659,11.823
				c-1.689,3.425,5.061,3.463,6.38,0.789c1.823-3.697-0.061-8.356,2.657-11.532c2.993-3.498,5.374-6.834,6.894-11.239
				C715.223,245.555,708.555,245.601,707.578,248.434L707.578,248.434z"/>
		</g>
	</g>
	<g>
		<g>
			<path d="M716.172,270.254c-5.208-0.691-10.274-1.878-15.223-3.648c-1.529-0.547-3.344-0.18-4.715,0.64
				c-0.769,0.46-2.143,1.986-0.602,2.537c5.347,1.912,10.809,3.277,16.441,4.025c1.611,0.214,3.458-0.175,4.713-1.263
				C717.788,271.676,717.591,270.442,716.172,270.254L716.172,270.254z"/>
		</g>
	</g>
	<g>
		<g>
			<path d="M635.167,198.736c-7.013,7.005-6.565,19.191-6.527,28.421c0.048,11.595,4.351,21.299,13.981,27.954
				c15.235,10.528,37.775,7.251,51.651-3.928c1.386-1.117-4.8-0.44-6.022,0.545c-13.781,11.103-33.639,8.209-45.583-4.156
				c-6.096-6.311-7.334-15.464-7.369-23.833c-0.034-8.168-0.281-19.382,5.891-25.548
				C642.557,196.825,636.276,197.629,635.167,198.736L635.167,198.736z"/>
		</g>
	</g>
	<g>
		<g>
			<path d="M636.295,252.493c-1.896,3.485-5.313,6.01-8.187,8.666c-3.436,3.176-6.872,6.352-10.308,9.528
				c-1.123,1.038,0.989,1.128,1.57,1.079c1.463-0.123,3.346-0.558,4.461-1.589c3.436-3.176,6.872-6.352,10.309-9.528
				c3.102-2.867,6.679-5.568,8.728-9.335C643.359,250.412,637.207,250.817,636.295,252.493L636.295,252.493z"/>
		</g>
	</g>
	<g>
		<g>
			<path d="M664.185,261.149c-1.077,8.908-2.425,17.771-4.046,26.596c-0.81,4.411-1.724,8.802-2.679,13.183
				c-0.475,2.178-2.133,4.745-2.103,6.848c0.117,0.294,0.331,0.486,0.642,0.574c2.26,0.53,4.599-0.04,6.255-1.702
				c0.373-0.375,0.339-0.771,0.051-1.153c-0.04-0.053-0.079-0.105-0.119-0.158c-1.171-1.554-7.591,0.65-6.23,2.456
				c-0.018-0.257-0.036-0.514-0.054-0.771c1.918-0.514,3.837-1.028,5.755-1.542c3.006,0.704,8.588-40.655,9.152-45.321
				C671.08,257.915,664.419,259.22,664.185,261.149L664.185,261.149z"/>
		</g>
	</g>
	<g>
		<g>
			<path d="M632.388,229.353c-15.261,0.271-30.799,4.763-45.741,7.605c-2.716,0.517-5.848,3.547-1.186,2.661
				c14.369-2.733,29.425-7.147,44.087-7.407C631.431,232.179,636.825,229.275,632.388,229.353L632.388,229.353z"/>
		</g>
	</g>
	<g>
		<g>
			<path d="M281.068,159.957c21.393,3.377,41.538,0.811,62.588-3.246c10.251-1.976,20.81-3.259,30.928,0.006
				c9.59,3.095,17.727,12.495,15.906,22.943c-0.527,3.021,6.249,1.997,6.712-0.658c1.624-9.318-3.554-17.301-10.885-22.594
				c-8.218-5.934-19.376-6.55-29.1-5.868c-11.718,0.821-23.124,4.241-34.743,5.802c-12.95,1.74-26.086,1.292-38.969-0.741
				C280.546,155.132,276.596,159.251,281.068,159.957L281.068,159.957z"/>
		</g>
	</g>
	<g>
		<g>
			<path d="M276.117,159.969c4.608,3.706,6.861,12.018,8.64,17.494c2.132,6.563,3.007,13.452,2.534,20.33
				c-0.859,12.486-7.236,24.048-11.155,35.727c-2.912,8.677-6.604,23.076,1.779,29.887c8.535,6.935,20.705,0.547,28.213-4.558
				c3.743-2.545-1.953-3.766-4.204-2.235c-5.155,3.505-10.798,7.348-17.131,4.472c-5.737-2.606-5.333-10.68-4.856-15.796
				c0.955-10.24,5.634-19.901,9.217-29.404c3.676-9.752,5.739-19.456,4.564-29.89c-0.594-5.272-2.194-10.404-4.062-15.345
				c-1.638-4.331-3.653-10.38-7.37-13.371C280.333,155.712,274.123,158.366,276.117,159.969L276.117,159.969z"/>
		</g>
	</g>
	<g>
		<g>
			<path d="M289.137,611.082c3.314-20.994,0.891-40.729-3.092-61.396c-1.896-9.837-3.199-19.829-0.957-29.718
				c2.181-9.616,10.186-19.826,21.027-17.937c2.96,0.516,6.893-3.581,2.438-4.358c-8.942-1.559-17.357,2.632-23.282,9.16
				c-7.14,7.867-8.485,19.057-8.013,29.212c0.543,11.662,3.958,23.045,5.667,34.554c2.026,13.64,1.646,27.546-0.5,41.141
				C281.944,614.785,288.717,613.74,289.137,611.082L289.137,611.082z"/>
		</g>
	</g>
	<g>
		<g>
			<path d="M289.751,614.642c3.283-4.081,12.2-6.294,17.007-7.723c6.996-2.079,14.279-2.51,21.461-1.267
				c11.804,2.043,22.586,8.036,34.009,11.434c8.27,2.46,21.542,4.845,28.67-1.744c8.629-7.978,3.424-18.922-2.078-27.014
				c-1.364-2.006-7.812,0.27-6.168,2.688c3.511,5.164,6.783,10.497,6.065,16.971c-0.935,8.431-9.92,7.76-16.205,6.741
				c-10.72-1.738-20.651-6.921-30.86-10.395c-9.956-3.388-20.372-4.435-30.717-2.274c-5.536,1.157-10.833,2.944-16.027,5.17
				c-4.097,1.755-8.56,3.59-11.403,7.124C281.543,616.791,288.306,616.439,289.751,614.642L289.751,614.642z"/>
		</g>
	</g>
	<g>
		<g>
			<path d="M742.932,605.738c-21.393-3.377-41.538-0.811-62.588,3.246c-10.251,1.976-20.81,3.259-30.928-0.006
				c-9.59-3.095-17.727-12.495-15.906-22.943c0.527-3.021-6.249-1.997-6.712,0.658c-1.624,9.318,3.554,17.301,10.885,22.594
				c8.218,5.934,19.376,6.55,29.1,5.868c11.718-0.821,23.124-4.241,34.743-5.802c12.95-1.74,26.086-1.292,38.969,0.741
				C743.454,610.563,747.404,606.444,742.932,605.738L742.932,605.738z"/>
		</g>
	</g>
	<g>
		<g>
			<path d="M747.883,605.725c-4.608-3.706-6.861-12.018-8.64-17.494c-2.132-6.563-3.007-13.452-2.534-20.33
				c0.859-12.486,7.236-24.048,11.155-35.727c2.912-8.677,6.604-23.076-1.779-29.887c-8.535-6.935-20.705-0.547-28.213,4.558
				c-3.743,2.545,1.953,3.766,4.204,2.235c5.155-3.505,10.798-7.348,17.131-4.472c5.737,2.605,5.333,10.68,4.856,15.796
				c-0.955,10.24-5.634,19.901-9.217,29.404c-3.676,9.752-5.739,19.456-4.564,29.89c0.594,5.272,2.194,10.404,4.062,15.345
				c1.638,4.331,3.653,10.38,7.37,13.371C743.667,609.983,749.877,607.329,747.883,605.725L747.883,605.725z"/>
		</g>
	</g>
	<g>
		<g>
			<path d="M734.863,154.613c-3.314,20.994-0.891,40.729,3.092,61.396c1.896,9.837,3.199,19.829,0.957,29.718
				c-2.181,9.616-10.186,19.826-21.027,17.937c-2.96-0.516-6.893,3.581-2.438,4.358c8.942,1.559,17.357-2.632,23.282-9.16
				c7.14-7.867,8.485-19.057,8.013-29.212c-0.543-11.662-3.958-23.045-5.667-34.554c-2.026-13.64-1.646-27.546,0.5-41.141
				C742.056,150.91,735.283,151.954,734.863,154.613L734.863,154.613z"/>
		</g>
	</g>
	<g>
		<g>
			<path d="M734.249,151.053c-3.283,4.081-12.2,6.294-17.007,7.723c-6.996,2.079-14.279,2.51-21.461,1.267
				c-11.804-2.043-22.586-8.036-34.009-11.434c-8.27-2.46-21.542-4.845-28.67,1.744c-8.629,7.978-3.424,18.922,2.078,27.014
				c1.364,2.006,7.812-0.27,6.168-2.688c-3.511-5.163-6.783-10.497-6.065-16.971c0.935-8.431,9.92-7.76,16.205-6.741
				c10.72,1.738,20.651,6.921,30.86,10.395c9.956,3.388,20.372,4.435,30.717,2.274c5.536-1.157,10.833-2.944,16.027-5.17
				c4.097-1.755,8.56-3.59,11.403-7.124C742.457,148.904,735.694,149.256,734.249,151.053L734.249,151.053z"/>
		</g>
	</g>
	<g>
		<g>
			<path d="M324.996,159.144c11.538-15.769,26.991-27.692,44.768-35.677c18.915-8.496,39.148-10.776,59.674-9.796
				c3.328,0.159,6.772-4.782,2.266-4.997c-21.53-1.028-42.028,1.354-62.116,9.489c-19.855,8.041-37.552,21.598-50.204,38.89
				C316.858,160.505,323.125,161.701,324.996,159.144L324.996,159.144z"/>
		</g>
	</g>
	<g>
		<g>
			<path d="M298.061,159.446c10.706-13.403,20.456-27.569,34.692-37.468c13.131-9.13,26.871-17.485,41.189-24.618
				c29.476-14.685,62.288-23.172,95.314-19.281c2.648,0.312,7.045-3.383,2.557-3.912c-34.811-4.101-69.416,5.068-100.543,20.306
				c-15.41,7.544-30.069,16.622-44.144,26.409c-14.461,10.055-24.422,24.74-35.29,38.345
				C289.924,161.62,296.667,161.19,298.061,159.446L298.061,159.446z"/>
		</g>
	</g>
	<g>
		<g>
			<path d="M283.965,170.261c-12.468,8.513-22.007,21.49-31.939,32.691c-10.485,11.825-19.13,24.379-26.061,38.602
				c-7.076,14.518-13.3,29.748-16.797,45.549c-3.522,15.914-3.54,32.492-1.737,48.624c0.287,2.565,6.783,0.896,6.665-1.786
				c-0.021-0.477-0.042-0.954-0.063-1.431c-0.107-2.428-6.788-1-6.665,1.786c0.021,0.477,0.042,0.954,0.063,1.431
				c2.222-0.595,4.443-1.191,6.665-1.786c-1.71-15.295-1.489-30.608,1.39-45.748c2.961-15.572,9.27-30.428,15.978-44.706
				c6.521-13.882,14.72-26.267,24.8-37.815c4.989-5.715,10.092-11.332,15.145-16.99c5.188-5.809,10.311-11.678,16.785-16.098
				C291.933,170.029,286.264,168.692,283.965,170.261L283.965,170.261z"/>
		</g>
	</g>
	<g>
		<g>
			<path d="M288.308,188.433c-17.91,11.576-32.26,27.694-41.665,46.835c-11.108,22.608-14.305,49.558-13.548,74.47
				c0.035,1.151,6.722,0.095,6.665-1.786c-0.728-23.971,2.418-48.933,12.14-71.025c8.683-19.734,23.451-36.621,41.513-48.295
				C296.202,186.83,289.498,187.664,288.308,188.433L288.308,188.433z"/>
		</g>
	</g>
	<g>
		<g>
			<path d="M288.442,571.036c-16.215-11.864-28.533-28.023-36.517-46.407c-8.339-19.204-10.575-39.496-9.584-60.236
				c0.171-3.574-6.615-2.669-6.765,0.461c-1.017,21.302,1.381,41.77,9.684,61.561c8.079,19.256,21.206,36.22,38.068,48.558
				C285.81,576.788,291.585,573.336,288.442,571.036L288.442,571.036z"/>
		</g>
	</g>
	<g>
		<g>
			<path d="M290.214,598.922c-13.259-10.591-27.472-20.287-37.4-34.262c-9.664-13.604-18.338-28.03-25.777-42.964
				c-14.965-30.039-23.754-63.768-19.788-97.433c0.326-2.771-6.399-1.552-6.675,0.795c-4.025,34.166,4.838,67.864,19.798,98.424
				c7.234,14.778,15.96,28.809,25.25,42.369c10.076,14.707,24.645,24.721,38.413,35.72
				C285.939,603.092,292.129,600.452,290.214,598.922L290.214,598.922z"/>
		</g>
	</g>
	<g>
		<g>
			<path d="M296.129,610.472c8.649,12.667,22.143,22.469,33.561,32.526c11.827,10.417,24.569,18.776,38.788,25.575
				c14.639,7.001,29.93,13.156,45.864,16.432c15.717,3.231,31.983,3.239,47.875,1.462c3.395-0.379,5.44-4.279,0.807-4.074
				c-0.477,0.021-0.954,0.042-1.431,0.063c-3.468,0.153-5.395,4.277-0.807,4.074c0.477-0.021,0.954-0.042,1.431-0.063
				c0.269-1.358,0.538-2.716,0.807-4.074c-15.548,1.738-31.142,1.492-46.497-1.665c-15.449-3.176-30.222-9.567-44.391-16.343
				c-13.887-6.641-26.095-15.127-37.629-25.286c-10.999-9.687-23.887-19.141-32.218-31.343
				C300.886,605.701,294.446,608.006,296.129,610.472L296.129,610.472z"/>
		</g>
	</g>
	<g>
		<g>
			<path d="M312.988,605.227c12.023,18.601,29.029,33.286,49.174,42.491c22.459,10.263,48.582,13.135,73.029,12.393
				c1.77-0.054,7.301-2.821,2.885-2.687c-24.456,0.742-50.198-2.739-72.466-13.295c-18.746-8.887-34.725-23.31-45.957-40.687
				C318.583,601.785,312.448,604.392,312.988,605.227L312.988,605.227z"/>
		</g>
	</g>
	<g>
		<g>
			<path d="M697.986,608.263c-11.538,15.769-26.991,27.692-44.768,35.677c-18.915,8.496-39.148,10.776-59.674,9.796
				c-3.328-0.159-6.772,4.782-2.266,4.997c21.531,1.028,42.028-1.354,62.115-9.489c19.855-8.041,37.552-21.598,50.204-38.89
				C706.124,606.902,699.857,605.706,697.986,608.263L697.986,608.263z"/>
		</g>
	</g>
	<g>
		<g>
			<path d="M724.921,607.961c-10.706,13.403-20.456,27.569-34.692,37.468c-13.131,9.13-26.87,17.485-41.189,24.618
				c-29.476,14.685-62.288,23.172-95.314,19.281c-2.648-0.312-7.045,3.383-2.557,3.912c34.811,4.101,69.416-5.068,100.543-20.306
				c15.41-7.544,30.069-16.622,44.144-26.409c14.461-10.055,24.422-24.74,35.29-38.346
				C733.058,605.787,726.315,606.216,724.921,607.961L724.921,607.961z"/>
		</g>
	</g>
	<g>
		<g>
			<path d="M739.017,597.145c12.468-8.513,22.007-21.49,31.939-32.691c10.485-11.825,19.13-24.379,26.061-38.602
				c7.076-14.518,13.3-29.748,16.797-45.549c3.522-15.914,3.54-32.492,1.737-48.624c-0.287-2.565-6.783-0.896-6.665,1.786
				c0.021,0.477,0.042,0.954,0.063,1.431c0.107,2.428,6.788,1,6.665-1.786c-0.021-0.477-0.042-0.954-0.063-1.431
				c-2.222,0.595-4.443,1.191-6.665,1.786c1.71,15.295,1.489,30.608-1.39,45.748c-2.961,15.572-9.27,30.428-15.978,44.706
				c-6.521,13.882-14.72,26.267-24.8,37.815c-4.989,5.715-10.092,11.332-15.145,16.99c-5.188,5.809-10.311,11.678-16.785,16.098
				C731.049,597.378,736.718,598.715,739.017,597.145L739.017,597.145z"/>
		</g>
	</g>
	<g>
		<g>
			<path d="M734.674,578.973c17.91-11.576,32.26-27.694,41.665-46.835c11.108-22.608,14.305-49.558,13.548-74.47
				c-0.035-1.151-6.722-0.095-6.665,1.786c0.728,23.971-2.418,48.933-12.14,71.025c-8.683,19.734-23.451,36.621-41.513,48.295
				C726.78,580.576,733.484,579.742,734.674,578.973L734.674,578.973z"/>
		</g>
	</g>
	<g>
		<g>
			<path d="M736.84,196.37c16.215,11.864,28.533,28.023,36.517,46.407c8.339,19.204,10.575,39.496,9.584,60.236
				c-0.171,3.574,6.615,2.669,6.765-0.461c1.017-21.302-1.381-41.77-9.684-61.561c-8.079-19.256-21.206-36.22-38.068-48.558
				C739.472,190.619,733.697,194.071,736.84,196.37L736.84,196.37z"/>
		</g>
	</g>
	<g>
		<g>
			<path d="M735.068,168.484c13.259,10.591,27.472,20.287,37.4,34.262c9.664,13.604,18.338,28.03,25.777,42.964
				c14.965,30.039,23.754,63.768,19.788,97.433c-0.326,2.771,6.399,1.552,6.675-0.795c4.025-34.166-4.838-67.864-19.798-98.424
				c-7.234-14.778-15.96-28.809-25.25-42.369c-10.076-14.707-24.645-24.721-38.413-35.72
				C739.343,164.315,733.153,166.955,735.068,168.484L735.068,168.484z"/>
		</g>
	</g>
	<g>
		<g>
			<path d="M729.153,156.934c-8.649-12.667-22.143-22.469-33.561-32.526c-11.827-10.417-24.569-18.776-38.788-25.575
				c-14.639-7.001-29.93-13.156-45.864-16.432c-15.717-3.231-31.983-3.239-47.875-1.462c-3.395,0.379-5.44,4.279-0.807,4.074
				c0.477-0.021,0.954-0.042,1.431-0.063c3.468-0.153,5.395-4.277,0.807-4.074c-0.477,0.021-0.954,0.042-1.431,0.063
				c-0.269,1.358-0.538,2.716-0.807,4.074c15.548-1.738,31.142-1.492,46.497,1.665c15.449,3.176,30.222,9.567,44.391,16.343
				c13.887,6.641,26.095,15.127,37.629,25.286c10.999,9.687,23.887,19.141,32.218,31.343
				C724.396,161.705,730.836,159.4,729.153,156.934L729.153,156.934z"/>
		</g>
	</g>
	<g>
		<g>
			<path d="M712.294,162.18c-12.023-18.601-29.029-33.286-49.174-42.491c-22.459-10.263-48.582-13.135-73.029-12.393
				c-1.77,0.054-7.301,2.821-2.885,2.687c24.456-0.742,50.198,2.739,72.466,13.295c18.746,8.887,34.725,23.31,45.957,40.687
				C706.699,165.622,712.833,163.015,712.294,162.18L712.294,162.18z"/>
		</g>
	</g>
	<g>
		<g>
			<path d="M312.328,173.587c-10.13,2.877-14.93,12.57-13.733,22.679c1.356,11.447,12.602,15.309,22.47,12.138
				c10.076-3.238,17.328-14.9,15.375-25.357c-2.179-11.666-16.283-13.875-25.341-9.489c-4.184,2.026-0.298,3.846,2.559,2.462
				c8.013-3.88,14.985,2.748,16.385,10.243c1.347,7.21-4.363,17.35-11.291,19.576c-15.127,4.861-18.847-25.446-5.607-29.207
				C317.089,175.512,316.294,172.46,312.328,173.587L312.328,173.587z"/>
		</g>
	</g>
	<g>
		<g>
			<path d="M301.869,584.714c5.601,19.72,43.699,13.936,38.917-8.209c-2.33-10.792-16.339-16.615-26.263-14.761
				c-10.895,2.035-18.039,12.872-12.976,23.328c1.046,2.16,7.525-0.009,6.665-1.786c-3.165-6.536-1.791-16.801,6.757-18.398
				c7.418-1.386,15.95,5.627,18.671,11.905c3.279,7.567-1.256,15.862-9.554,16.303c-6.647,0.354-13.695-3.629-15.552-10.168
				C307.921,580.77,301.265,582.588,301.869,584.714L301.869,584.714z"/>
		</g>
	</g>
</g>
<g id="Слой_3">
	<g>
		<g>
			<g>
				<path d="M515.474,380.867c13.318-27.131,24.813-55.518,26.541-86.029c1.37-24.195-3.462-56.336-27.075-69.016
					c-1.738-0.933-7.913,1.662-5.355,3.036c23.837,12.8,27.238,46.761,25.552,70.688c-2.046,29.023-13.63,56.443-26.301,82.257
					C507.996,383.514,514.499,382.852,515.474,380.867L515.474,380.867z"/>
			</g>
		</g>
		<g>
			<g>
				<path d="M514.422,342.855c7.002-14.557,11.26-30.212,11.964-46.378c0.351-8.057-0.439-16.161-2.111-24.038
					c-0.772-3.635-1.7-7.512-3.344-10.854c-1.42-2.887-4.566-4.993-7.084-6.853c-2.212-1.634-8.157,1.49-5.18,3.689
					c2.922,2.158,5.494,4.15,6.704,7.684c1.092,3.189,1.888,6.473,2.588,9.767c1.596,7.516,1.957,15.231,1.623,22.889
					c-0.657,15.105-4.963,29.92-11.49,43.49C506.498,345.564,513.232,345.33,514.422,342.855L514.422,342.855z"/>
			</g>
		</g>
		<g>
			<g>
				<path d="M514.59,380.442c-12.488-25.441-23.365-51.919-26.142-80.372c-2.319-23.759,0.906-59.112,24.727-71.903
					c3.949-2.121-2.064-2.72-4.049-1.654c-23.606,12.676-28.507,43.52-27.822,67.799c0.876,31.032,13.14,60.453,26.621,87.917
					C508.963,384.342,515.428,382.149,514.59,380.442L514.59,380.442z"/>
			</g>
		</g>
		<g>
			<g>
				<path d="M513.136,341.66c-6.283-13.116-9.749-27.262-10.234-41.8c-0.225-6.764,0.37-13.534,1.462-20.204
					c0.547-3.337,1.342-6.628,2.221-9.891c1.014-3.766,2.091-9.091,5.19-11.803c3.401-2.977-1.968-4.855-4.348-2.772
					c-4.886,4.277-6.377,10.727-8.011,16.798c-2.199,8.169-3.146,16.638-3.274,25.08c-0.243,16.015,3.422,31.959,10.329,46.377
					C507.794,346.208,514.361,344.218,513.136,341.66L513.136,341.66z"/>
			</g>
		</g>
	</g>
	<g>
		<g>
			<g>
				<path d="M513.559,381.112c-9.758-28.573-21.718-56.814-41.99-79.628c-16.949-19.074-43.829-37.903-70.555-29.926
					c-3.91,1.167-3.158,4.139,0.793,2.96c25.97-7.752,52.639,16.107,67.82,34.461c17.753,21.463,28.356,47.827,37.266,73.919
					C507.619,385.021,514.233,383.086,513.559,381.112L513.559,381.112z"/>
			</g>
		</g>
		<g>
			<g>
				<path d="M487.164,352.661c-5.584-15.901-14.818-30.098-26.983-41.751c-10.456-10.016-24.449-21.331-39.735-19.448
					c-3.577,0.441-5.231,5.138-0.673,4.577c7.646-0.942,13.082,2.214,19.373,6.15c6.624,4.144,12.645,9.184,18.122,14.741
					c10.43,10.583,18.317,23.524,23.231,37.518C481.506,357.314,488.14,355.44,487.164,352.661L487.164,352.661z"/>
			</g>
		</g>
		<g>
			<g>
				<path d="M512.269,381.122c-26.741-9.132-53.146-20.102-75.115-38.274c-19.117-15.812-41.138-42.932-33.21-69.491
					c0.626-2.098-6.018-1.14-6.638,0.935c-7.842,26.271,12.725,52.566,31.138,68.927c22.308,19.822,50.576,31.412,78.47,40.938
					C508.771,384.791,514.823,381.994,512.269,381.122L512.269,381.122z"/>
			</g>
		</g>
		<g>
			<g>
				<path d="M485.785,354.863c-13.464-4.719-25.773-11.932-36.649-21.147c-5.74-4.863-10.834-10.489-15.351-16.492
					c-4.196-5.576-10.58-13.907-10.217-21.173c0.165-3.308-6.59-2.217-6.73,0.591c-0.353,7.061,4.466,13.99,8.19,19.687
					c4.502,6.887,10.086,13.029,16.121,18.594c11.704,10.794,25.727,18.953,40.729,24.211
					C484.532,360.064,489.72,356.242,485.785,354.863L485.785,354.863z"/>
			</g>
		</g>
	</g>
	<g>
		<g>
			<g>
				<path d="M512.015,382.324c-28.15-13.818-57.566-25.484-89.254-26.831c-24.759-1.053-57.839,4.691-70.737,28.71
					c-0.869,1.619,5.591,1.014,6.638-0.935c12.74-23.724,46.544-26.006,70.111-23.706c27.472,2.681,53.358,13.758,77.888,25.799
					C508.433,386.23,514.586,383.587,512.015,382.324L512.015,382.324z"/>
			</g>
		</g>
		<g>
			<g>
				<path d="M474.599,381.998c-15.68-7.528-32.899-11.703-50.328-11.664c-14.509,0.032-34.255,1.325-44.108,13.534
					c-2.625,3.253,3.744,3.944,5.519,1.745c4.553-5.642,10.684-7.219,17.485-8.733c7.482-1.665,15.267-2.12,22.91-1.9
					c14.963,0.431,29.868,4.239,43.343,10.708C471.846,386.852,477.781,383.525,474.599,381.998L474.599,381.998z"/>
			</g>
		</g>
		<g>
			<g>
				<path d="M507.313,383.913c-25.457,12.496-52.187,23.517-80.779,25.532c-23.267,1.64-55.546-2.56-67.86-25.491
					c-1.126-2.097-7.537,0.162-6.665,1.786c13.174,24.532,46.967,28.571,71.846,27.162c30.926-1.751,60.04-13.853,87.506-27.335
					c0.849-0.417,2.075-1.766,0.653-2.345C510.515,382.611,508.669,383.247,507.313,383.913L507.313,383.913z"/>
			</g>
		</g>
		<g>
			<g>
				<path d="M472.009,382.769c-13.513,6.489-27.999,10.065-42.966,10.768c-7.698,0.362-15.501-0.323-23.05-1.851
					c-6.538-1.324-14.052-3.074-18.566-8.373c-1.846-2.167-8.205,0.41-6.124,2.853c4.865,5.712,12.165,7.749,19.184,9.437
					c8.049,1.935,16.292,2.594,24.551,2.59c17.166-0.008,34.414-4.389,49.84-11.797
					C479.008,384.414,475.296,381.191,472.009,382.769L472.009,382.769z"/>
			</g>
		</g>
	</g>
	<g>
		<g>
			<g>
				<path d="M508.739,384.581c-27.895,9.526-55.463,21.145-78.168,40.374c-19.181,16.244-40.869,43.702-32.863,70.524
					c0.63,2.11,7.276,0.261,6.665-1.786c-7.761-26.001,13.113-51.984,31.472-67.908c21.615-18.748,48.669-29.685,75.431-38.824
					C515.72,385.443,511.608,383.601,508.739,384.581L508.739,384.581z"/>
			</g>
		</g>
		<g>
			<g>
				<path d="M483.985,408.614c-16.208,5.696-30.697,14.867-43.142,26.681c-6.237,5.921-11.653,12.661-16.321,19.872
					c-3.566,5.509-9.346,14.147-9.103,21.017c0.118,3.346,6.827,2.17,6.73-0.591c-0.2-5.681,4.35-12.45,7.102-17.207
					c4.056-7.011,9.232-13.311,14.855-19.113c11.342-11.703,25.638-20.999,41.019-26.404
					C489.055,411.487,488.015,407.198,483.985,408.614L483.985,408.614z"/>
			</g>
		</g>
		<g>
			<g>
				<path d="M507.324,386.873c-8.604,25.195-18.816,50.037-35.198,71.268c-14.665,19.006-41.414,43.535-67.621,35.713
					c-1.547-0.462-3.314-0.097-4.702,0.691c-0.685,0.389-2.217,1.878-0.653,2.345c26.517,7.915,53.126-10.592,70.581-28.83
					c21.797-22.775,34.194-52.734,44.23-82.122C514.649,383.924,508.029,384.808,507.324,386.873L507.324,386.873z"/>
			</g>
		</g>
		<g>
			<g>
				<path d="M481.39,410.438c-5.287,15.084-13.559,28.839-24.339,40.636c-5.431,5.944-11.617,11.118-18.333,15.545
					c-5.571,3.672-11.841,6.93-18.745,6.28c-3.085-0.29-6.893,4.15-2.38,4.574c15.64,1.472,29.954-10.108,40.572-20.167
					c13.346-12.643,23.49-28.963,29.554-46.263C488.955,407.521,482.298,407.846,481.39,410.438L481.39,410.438z"/>
			</g>
		</g>
	</g>
	<g>
		<g>
			<g>
				<path d="M508.526,387.127c-13.318,27.131-24.813,55.518-26.541,86.029c-1.37,24.195,3.462,56.336,27.075,69.016
					c1.738,0.933,7.913-1.662,5.355-3.036c-23.837-12.8-27.238-46.761-25.552-70.688c2.046-29.023,13.63-56.443,26.301-82.257
					C516.004,384.481,509.501,385.143,508.526,387.127L508.526,387.127z"/>
			</g>
		</g>
		<g>
			<g>
				<path d="M508.326,424.04c-7.174,14.953-10.962,31.186-11.189,47.768c-0.11,8.034,0.829,16.072,2.582,23.904
					c1.541,6.883,3.623,14.134,9.183,18.854c2.094,1.779,8.023-1.274,5.18-3.689c-5.197-4.413-6.65-12.272-8.061-18.578
					c-1.671-7.465-2.234-15.138-2.13-22.772c0.213-15.514,4.07-30.925,10.766-44.882
					C516.247,421.329,509.514,421.563,508.326,424.04L508.326,424.04z"/>
			</g>
		</g>
		<g>
			<g>
				<path d="M509.41,387.553c12.488,25.441,23.365,51.919,26.142,80.372c2.319,23.759-0.906,59.112-24.727,71.903
					c-3.949,2.121,2.064,2.72,4.049,1.654c23.606-12.676,28.507-43.52,27.822-67.799c-0.876-31.032-13.14-60.453-26.621-87.917
					C515.037,383.653,508.572,385.845,509.41,387.553L509.41,387.553z"/>
			</g>
		</g>
		<g>
			<g>
				<path d="M509.253,424.723c6.897,14.364,10.761,29.977,11.263,45.909c0.244,7.736-0.525,15.478-2.057,23.055
					c-1.332,6.589-3.208,14.219-8.634,18.744c-3.477,2.9,1.929,4.79,4.348,2.772c11.432-9.535,12.889-28.019,13.1-41.824
					c0.265-17.385-3.848-34.806-11.356-50.443C514.592,420.176,508.025,422.167,509.253,424.723L509.253,424.723z"/>
			</g>
		</g>
	</g>
	<g>
		<g>
			<g>
				<path d="M510.441,386.882c9.758,28.573,21.718,56.814,41.99,79.628c16.949,19.074,43.829,37.903,70.555,29.926
					c3.91-1.167,3.158-4.139-0.793-2.96c-25.97,7.752-52.639-16.107-67.82-34.461c-17.753-21.463-28.356-47.827-37.266-73.919
					C516.381,382.974,509.767,384.909,510.441,386.882L510.441,386.882z"/>
			</g>
		</g>
		<g>
			<g>
				<path d="M536.836,415.334c5.415,15.422,14.263,29.241,25.898,40.711c5.503,5.425,11.67,10.153,18.214,14.247
					c7.006,4.383,12.716,7.015,21.065,5.845c3.553-0.498,5.224-5.214,0.673-4.577c-4.361,0.611-7.416,0.1-11.348-1.964
					c-3.105-1.63-6.081-3.494-8.995-5.44c-6.083-4.063-11.599-8.9-16.651-14.176c-9.931-10.37-17.443-22.91-22.191-36.432
					C542.494,410.681,535.86,412.554,536.836,415.334L536.836,415.334z"/>
			</g>
		</g>
		<g>
			<g>
				<path d="M511.731,386.873c26.741,9.132,53.146,20.102,75.115,38.274c19.117,15.812,41.138,42.932,33.21,69.491
					c-0.626,2.098,6.018,1.14,6.638-0.935c7.842-26.271-12.725-52.566-31.138-68.927c-22.308-19.822-50.576-31.412-78.47-40.938
					C515.229,383.203,509.177,386.001,511.731,386.873L511.731,386.873z"/>
			</g>
		</g>
		<g>
			<g>
				<path d="M538.215,414.301c14.163,4.959,27.277,12.589,38.512,22.55c5.372,4.762,10.153,10.159,14.388,15.947
					c4.794,6.553,9.016,12.982,7.87,21.346c-0.441,3.221,6.344,2.222,6.73-0.591c2.044-14.912-11.624-29.032-21.719-38.512
					c-11.951-11.222-26.436-19.606-41.873-25.012C539.468,409.101,534.279,412.923,538.215,414.301L538.215,414.301z"/>
			</g>
		</g>
	</g>
	<g>
		<g>
			<g>
				<path d="M511.985,385.67c28.15,13.818,57.566,25.484,89.254,26.831c24.759,1.053,57.839-4.691,70.737-28.71
					c0.869-1.619-5.591-1.014-6.638,0.935c-12.74,23.724-46.544,26.006-70.111,23.706c-27.472-2.681-53.358-13.758-77.888-25.798
					C515.567,381.764,509.414,384.408,511.985,385.67L511.985,385.67z"/>
			</g>
		</g>
		<g>
			<g>
				<path d="M516.687,384.082c25.457-12.496,52.187-23.517,80.779-25.532c23.267-1.64,55.546,2.56,67.86,25.491
					c1.126,2.097,7.537-0.162,6.665-1.786c-13.174-24.532-46.967-28.571-71.846-27.162c-30.926,1.751-60.04,13.853-87.506,27.335
					c-0.849,0.417-2.075,1.766-0.653,2.345C513.485,385.384,515.331,384.747,516.687,384.082L516.687,384.082z"/>
			</g>
		</g>
		<g>
			<g>
				<path d="M553.116,385.656c13.573-6.521,28.122-10.205,43.154-11.022c7.469-0.406,14.963,0.215,22.316,1.531
					c3.678,0.658,17.471,2.912,17.471,7.387c0,2.899-0.954,3.109-3.784,4.3c-3.628,1.527-7.624,2.408-11.456,3.248
					c-7.52,1.65-15.347,2.051-23.021,1.789c-15.027-0.513-29.992-4.391-43.526-10.89c-2.427-1.165-8.361,2.161-5.18,3.689
					c16.232,7.795,34.152,12.098,52.202,11.87c9.159-0.116,18.187-1.323,27.015-3.784c4.824-1.345,14.479-3.638,14.479-9.917
					c0-2.275,0.243-3.54-1.687-5.144c-3.26-2.711-7.408-3.889-11.408-5.084c-8.69-2.595-17.83-3.615-26.872-3.688
					c-18.136-0.145-36.261,4.251-52.574,12.088C546.118,384.012,549.83,387.235,553.116,385.656L553.116,385.656z"/>
			</g>
		</g>
	</g>
	<g>
		<g>
			<g>
				<path d="M515.261,383.414c27.895-9.526,55.463-21.145,78.168-40.374c19.181-16.244,40.869-43.702,32.863-70.524
					c-0.63-2.11-7.276-0.261-6.665,1.786c7.761,26.001-13.113,51.984-31.472,67.908c-21.615,18.748-48.669,29.685-75.431,38.824
					C508.28,382.552,512.392,384.393,515.261,383.414L515.261,383.414z"/>
			</g>
		</g>
		<g>
			<g>
				<path d="M539.427,357.956c16.143-5.654,30.804-14.347,43.501-25.811c6.33-5.715,11.816-12.284,16.523-19.383
					c4.256-6.419,8.008-13.62,7.357-21.548c-0.233-2.833-6.916-1.267-6.665,1.786c0.578,7.038-3.403,13.483-7.022,19.157
					c-4.044,6.34-9.139,11.989-14.559,17.172c-11.361,10.863-25.468,19.188-40.274,24.373
					C534.355,355.08,535.396,359.368,539.427,357.956L539.427,357.956z"/>
			</g>
		</g>
		<g>
			<g>
				<path d="M516.676,381.122c8.604-25.195,18.816-50.037,35.198-71.268c14.665-19.006,41.415-43.535,67.621-35.713
					c1.547,0.462,3.314,0.097,4.702-0.691c0.685-0.389,2.217-1.878,0.653-2.345c-26.517-7.915-53.126,10.592-70.581,28.83
					c-21.797,22.775-34.194,52.734-44.23,82.122C509.351,384.071,515.971,383.186,516.676,381.122L516.676,381.122z"/>
			</g>
		</g>
		<g>
			<g>
				<path d="M542.918,353.441c4.438-12.638,11.186-24.118,20.024-34.18c4.464-5.083,9.509-9.606,14.898-13.684
					c2.796-2.116,5.744-4.024,8.742-5.838c3.438-2.08,8.485-5.459,12.633-5.252c3.057,0.153,6.899-4.349,2.38-4.574
					c-7.577-0.379-14.378,4.04-20.646,7.832c-6.654,4.026-12.72,8.972-18.327,14.343c-11.738,11.244-20.659,25.443-26.033,40.748
					C535.351,356.357,542.008,356.032,542.918,353.441L542.918,353.441z"/>
			</g>
		</g>
	</g>
</g>
</svg>
